<?xml version="1.0" encoding="utf-8"?><svg xmlns="http://www.w3.org/2000/svg" xmlns:xlink="http://www.w3.org/1999/xlink"><symbol viewBox="0 0 97.16 97.16" id="clock-circular-outline" xmlns="http://www.w3.org/2000/svg"><path d="M48.58 0C21.793 0 0 21.793 0 48.58s21.793 48.58 48.58 48.58 48.58-21.793 48.58-48.58S75.367 0 48.58 0zm0 86.823c-21.087 0-38.244-17.155-38.244-38.243S27.493 10.337 48.58 10.337 86.824 27.492 86.824 48.58 69.667 86.823 48.58 86.823z"/><path d="M73.898 47.08H52.066V20.83a4 4 0 0 0-8 0v30.25a4 4 0 0 0 4 4h25.832a4 4 0 0 0 0-8z"/></symbol><symbol viewBox="0 0 48 48" id="logo" xmlns="http://www.w3.org/2000/svg"><path d="M20.781 18.989l-4.354 1.551c-.586-1.84-1.824-2.76-3.723-2.76-2.022 0-3.033.698-3.033 2.095 0 .557.189 1.027.568 1.414.376.386 1.232.721 2.564 1.006 2.227.48 3.859.962 4.893 1.45 1.032.488 1.906 1.275 2.612 2.361.71 1.084 1.064 2.297 1.064 3.635 0 2.1-.761 3.918-2.278 5.451-1.521 1.533-3.772 2.299-6.757 2.299-3.268.061-5.003-1.107-5.719-1.627s-1.335-.732-2.486-2.605l3.146-3.104c1.041 1.855 2.979 2.992 5.409 2.992 1.172 0 2.044-.24 2.621-.725.573-.482.861-1.061.861-1.729 0-.682-.263-1.211-.784-1.584-.521-.375-1.529-.729-3.021-1.057-2.782-.613-4.766-1.453-5.947-2.514-1.183-1.062-1.774-2.615-1.774-4.659 0-2.068.707-3.812 2.118-5.23 1.414-1.421 3.33-2.13 5.75-2.13 4.287.001 7.044 1.824 8.27 5.47z"/><path d="M43.863 41.342s-4.004 2.701-9.543 2.701c-5.665 0-10.258-1.93-13.781-5.799-3.432-3.742-5.147-8.463-5.147-14.162 0-5.521 1.679-10.205 5.039-14.056 3.503-4.031 7.971-6.34 13.372-6.046 6.258.34 9.539 2.715 9.539 2.715l-.059 10.125-4.169-1.701s-2.924-1.089-4.467-1.089c-2.669 0-4.804.998-6.4 2.996-1.471 1.853-2.206 4.139-2.206 6.862 0 2.763.735 5.076 2.206 6.947 1.597 2.031 3.731 3.051 6.4 3.051 1.58 0 6.025-.889 9.216-2.785.008.815 0 10.241 0 10.241z"/></symbol><symbol viewBox="0 0 342.51 298.324" id="q2" xmlns="http://www.w3.org/2000/svg"><path d="M157.519 7.894L2.187 274.42c-6.177 10.599 1.468 23.904 13.736 23.904h310.664c12.268 0 19.914-13.306 13.736-23.904L184.991 7.894c-6.134-10.524-21.339-10.524-27.472 0"/></symbol><symbol viewBox="0 0 166.182 188.243" id="search123" xmlns="http://www.w3.org/2000/svg"><path d="M77.43 1.353c3.117-1.804 8.204-1.804 11.319 0l71.69 41.505c3.117 1.804 5.742 6.232 5.742 9.843v82.844c0 3.606-2.461 8.038-5.742 9.842l-71.69 41.502c-3.115 1.807-8.202 1.807-11.319 0L5.742 145.387C2.625 143.583 0 139.151 0 135.545V52.701c0-3.611 2.46-8.039 5.742-9.843L77.43 1.353z"/><path d="M64.43 68.354l2.323 2.256s17.637-17.567 37.527 0l2.392-2.256s-8.613-9.228-21.121-8.817c-12.509.409-19.276 7.108-21.121 8.817z"/><path d="M52.058 118.185s-8.761-7.271-10.116-28.846C44.13 55.572 69.146 46.55 85.551 46.003c16.404-.547 43.336 12.851 43.199 42.79-.136 29.938-24.334 44.02-43.199 44.02-18.866 0-30.247-12.185-30.247-12.185l-21.352 21.351-2.333-2.384 20.439-21.41zm72.967-28.76c0-21.8-17.673-39.475-39.475-39.475-21.8 0-39.474 17.674-39.474 39.475 0 21.8 17.674 39.474 39.474 39.474 21.803-.001 39.475-17.674 39.475-39.474z"/></symbol><symbol viewBox="0 0 36 36" id="time" xmlns="http://www.w3.org/2000/svg"><path d="M18.419 5.303c-6.752 0-12.246 5.495-12.246 12.246 0 6.754 5.494 12.248 12.246 12.248 6.753 0 12.247-5.494 12.247-12.248 0-6.752-5.494-12.246-12.247-12.246zm0 21.887c-5.315 0-9.64-4.325-9.64-9.642 0-5.316 4.325-9.64 9.64-9.64s9.642 4.324 9.642 9.64c0 5.317-4.327 9.642-9.642 9.642z"/><path d="M24.803 17.171h-5.504v-6.617a1.01 1.01 0 0 0-2.017 0v7.625c0 .557.451 1.01 1.008 1.01h6.513a1.01 1.01 0 0 0 0-2.018z"/></symbol><symbol viewBox="0 0 36 36" id="verif" xmlns="http://www.w3.org/2000/svg"><path d="M17.261 22.75a.635.635 0 0 1-.45-.189l-4.654-4.713c-.249-.251-.088-.892.162-1.142.249-.253.811-.44 1.059-.188l3.919 3.879 6.293-6.402c.249-.252.786-.287 1.151.098.464.469.459.884.211 1.137l-7.242 7.331a.63.63 0 0 1-.449.189z"/><path d="M19.084 30.712c-.443.221-.515.388-1.194.388-.529 0-.65-.137-1.094-.388-1.626-.717-2.447-2.682-4.625-2.665-2.766.023-3.98-1.255-4.164-4.064-.081-1.24-.528-2.155-1.293-3.079-1.536-1.854-1.551-4.021.004-5.86.843-.997 1.246-2.012 1.296-3.316.07-1.847.963-3.671 2.794-3.68 2.584-.013 4.187-1.48 5.986-2.826.443-.24.422-.321 1.158-.321.666 0 .687.043 1.13.321 2.064 1.169 3.762 2.976 6.497 2.897 1.217-.036 2.3 1.285 2.364 2.75.098 2.23 1.165 3.92 2.58 5.474.271.587.511.838.511 1.621 0 .839-.21 1.072-.511 1.625-1.38 1.617-2.625 3.249-2.612 5.593.009 1.345-1.075 2.592-2.188 2.594-2.723.007-4.55 1.687-6.639 2.936zm-8.749-7.869c-.245 2.092.701 3.171 2.849 3.056 1.323-.072 2.313.358 3.19 1.396 1.026 1.214 2.295 1.245 3.342.026.941-1.094 2.026-1.485 3.421-1.436 1.763.065 2.725-.87 2.654-2.687-.05-1.31.227-2.399 1.26-3.297 1.472-1.283 1.385-2.656-.053-3.916-.951-.835-1.266-1.85-1.2-3.085.098-1.908-.842-2.937-2.735-2.849-1.407.065-2.471-.374-3.398-1.467-.965-1.138-2.217-1.177-3.162-.042-.997 1.196-2.142 1.568-3.609 1.508-1.825-.074-2.723.971-2.52 2.751.158 1.375-.168 2.37-1.258 3.222-1.665 1.3-1.593 2.695.042 3.982.911.718 1.494 1.532 1.177 2.838z"/></symbol></svg>