<?xml version="1.0" encoding="utf-8"?>
<!-- Generator: Adobe Illustrator 16.0.3, SVG Export Plug-In . SVG Version: 6.00 Build 0)  -->
<!DOCTYPE svg PUBLIC "-//W3C//DTD SVG 1.1//EN" "http://www.w3.org/Graphics/SVG/1.1/DTD/svg11.dtd">
<svg version="1.1" id="Слой_1" xmlns="http://www.w3.org/2000/svg" xmlns:xlink="http://www.w3.org/1999/xlink" x="0px" y="0px"
	 width="99.156px" height="22.864px" viewBox="0 0 99.156 22.864" enable-background="new 0 0 99.156 22.864" xml:space="preserve">
<path fill="#FFFFFF" d="M-0.625,22.864c0,0,13.11-0.679,25-9.185C32.889,7.59,38-0.017,49,0v22.864 M99.156,22.864
	c0,0-13.329-0.679-25.219-9.185C65.424,7.59,60-0.017,49,0v22.864"/>
<g>
	<polygon fill="#B21919" points="40.641,8.255 48.75,16.302 56.797,8.255 56.078,7.536 48.719,14.896 41.328,7.536 	"/>
	<path fill="#B21919" d="M48.75,16.443L40.5,8.257l0.826-0.863l0.073,0.071l7.32,7.289l7.359-7.359l0.86,0.86l-0.071,0.07
		L48.75,16.443z M40.781,8.253l7.969,7.907l7.906-7.905l-0.577-0.577l-7.359,7.359l-0.071-0.07L41.33,7.679L40.781,8.253z"/>
</g>
</svg>
