<?xml version="1.0" encoding="utf-8"?>
<!-- Generator: Adobe Illustrator 16.0.3, SVG Export Plug-In . SVG Version: 6.00 Build 0)  -->
<!DOCTYPE svg PUBLIC "-//W3C//DTD SVG 1.1//EN" "http://www.w3.org/Graphics/SVG/1.1/DTD/svg11.dtd">
<svg version="1.1" id="Слой_1" xmlns="http://www.w3.org/2000/svg" xmlns:xlink="http://www.w3.org/1999/xlink" x="0px" y="0px"
	 width="33px" height="33px" viewBox="0 0 33 33" enable-background="new 0 0 33 33" xml:space="preserve">
<path fill="none" stroke="#6C7B8A" stroke-width="2" stroke-linecap="round" stroke-linejoin="round" stroke-miterlimit="10" d="
	M7.5,1h18C29.09,1,32,3.91,32,7.5v18c0,3.59-2.91,6.5-6.5,6.5h-18C3.91,32,1,29.09,1,25.5v-18C1,3.91,3.91,1,7.5,1z"/>
<path fill="none" stroke="#6C7B8A" stroke-width="2" stroke-linecap="round" stroke-linejoin="round" stroke-miterlimit="10" d="
	M22.7,15.523c0.393,2.646-0.956,5.245-3.346,6.447c-2.389,1.203-5.28,0.737-7.171-1.153c-1.892-1.892-2.356-4.783-1.154-7.172
	c1.203-2.389,3.802-3.738,6.448-3.346C20.178,10.701,22.3,12.822,22.7,15.523z"/>
</svg>
