<?xml version="1.0" encoding="utf-8"?>
<!-- Generator: Adobe Illustrator 16.0.3, SVG Export Plug-In . SVG Version: 6.00 Build 0)  -->
<!DOCTYPE svg PUBLIC "-//W3C//DTD SVG 1.1//EN" "http://www.w3.org/Graphics/SVG/1.1/DTD/svg11.dtd">
<svg version="1.1" id="Слой_1" xmlns="http://www.w3.org/2000/svg" xmlns:xlink="http://www.w3.org/1999/xlink" x="0px" y="0px"
	 width="33px" height="33px" viewBox="0 0 33 33" enable-background="new 0 0 33 33" xml:space="preserve">
<path fill="#6C7B8A" d="M25.5,33h-18C3.364,33,0,29.636,0,25.5v-18C0,3.364,3.364,0,7.5,0h18C29.636,0,33,3.364,33,7.5v18
	C33,29.636,29.636,33,25.5,33z M7.5,2C4.467,2,2,4.467,2,7.5v18C2,28.532,4.467,31,7.5,31h18c3.032,0,5.5-2.468,5.5-5.5v-18
	C31,4.467,28.532,2,25.5,2H7.5z"/>
<path fill="#6C7B8A" d="M16.569,23.633c-1.924,0-3.733-0.749-5.093-2.109c-2.201-2.2-2.739-5.547-1.341-8.328
	c1.231-2.445,3.696-3.964,6.431-3.964c0.352,0,0.707,0.026,1.057,0.078c3.161,0.471,5.599,2.909,6.066,6.067
	c0.457,3.079-1.105,6.087-3.887,7.488C18.804,23.366,17.686,23.633,16.569,23.633z M16.566,11.232c-1.976,0-3.755,1.097-4.645,2.863
	c-1.01,2.008-0.621,4.426,0.968,6.015c0.982,0.982,2.289,1.523,3.679,1.523c0.806,0,1.613-0.192,2.335-0.556
	c2.009-1.011,3.137-3.184,2.807-5.407c-0.338-2.281-2.099-4.042-4.382-4.382C17.077,11.25,16.821,11.232,16.566,11.232z"/>
</svg>
