<?xml version="1.0" encoding="utf-8"?>
<!-- Generator: Adobe Illustrator 16.0.3, SVG Export Plug-In . SVG Version: 6.00 Build 0)  -->
<!DOCTYPE svg PUBLIC "-//W3C//DTD SVG 1.1//EN" "http://www.w3.org/Graphics/SVG/1.1/DTD/svg11.dtd">
<svg version="1.1" id="Слой_1" xmlns="http://www.w3.org/2000/svg" xmlns:xlink="http://www.w3.org/1999/xlink" x="0px" y="0px"
	 width="64px" height="64px" viewBox="0 0 64 64" enable-background="new 0 0 64 64" xml:space="preserve">
<path fill-rule="evenodd" clip-rule="evenodd" fill="#E11925" d="M32.195,44.705c-0.29,0.006-0.511-0.139-0.711-0.323
	c-0.215-0.199-0.389-0.435-0.532-0.687c-0.878-1.552-1.949-2.976-2.954-4.442c-2.976-4.339-5.963-8.669-8.947-13.002
	c-0.407-0.591-0.826-1.175-1.229-1.769c-0.106-0.158-0.15-0.174-0.262,0.001c-2.218,3.5-4.339,7.06-6.388,10.661
	c-1.573,2.765-3.095,5.558-4.545,8.389c-0.059,0.115-0.125,0.229-0.198,0.335c-0.311,0.449-0.664,0.608-1.186,0.457
	c-0.77-0.224-1.515-0.522-2.206-0.934c-0.419-0.249-0.516-0.546-0.374-1.016c0.161-0.529,0.442-1.004,0.703-1.487
	c2.061-3.818,4.072-7.665,6.235-11.428c2.201-3.83,4.556-7.558,7.261-11.056c0.149-0.193,0.298-0.389,0.482-0.552
	c0.26-0.23,0.448-0.227,0.702,0.01c0.202,0.188,0.365,0.412,0.527,0.633c4.603,6.295,9.122,12.65,13.596,19.036
	c0.911,1.302,1.819,2.604,2.729,3.906c0.141,0.201,0.276,0.404,0.363,0.635c0.131,0.354,0.057,0.621-0.238,0.851
	c-0.049,0.038-0.097,0.08-0.151,0.104c-0.63,0.27-1.122,0.729-1.632,1.168C32.94,44.453,32.625,44.703,32.195,44.705z"/>
<path fill-rule="evenodd" clip-rule="evenodd" fill="#E11925" d="M39.44,16.92c0.673-0.038,1.343-0.012,2.008,0.102
	c0.47,0.08,0.741,0.35,0.834,0.818c0.138,0.699,0.158,1.41,0.219,2.116c0.14,1.628,0.269,3.257,0.4,4.886
	c0.112,1.393,0.223,2.786,0.335,4.178c0.131,1.621,0.264,3.242,0.395,4.863c0.115,1.407,0.227,2.814,0.344,4.223
	c0.13,1.567,0.263,3.134,0.392,4.701c0.076,0.905,0.154,1.811,0.219,2.716c0.039,0.54-0.168,0.767-0.712,0.778
	c-0.883,0.019-1.74,0.213-2.607,0.344c-0.241,0.036-0.482,0.076-0.729,0.073c-0.383-0.007-0.557-0.141-0.643-0.518
	c-0.096-0.41-0.109-0.832-0.143-1.25c-0.136-1.728-0.27-3.456-0.401-5.184c-0.113-1.477-0.222-2.953-0.335-4.43
	c-0.129-1.69-0.263-3.38-0.395-5.069c-0.113-1.454-0.225-2.908-0.34-4.361c-0.113-1.454-0.231-2.907-0.348-4.361
	c-0.096-1.225-0.207-2.45-0.278-3.676c-0.038-0.658,0.228-0.913,0.893-0.947C38.844,16.908,39.143,16.92,39.44,16.92z"/>
<path fill-rule="evenodd" clip-rule="evenodd" fill="#E11925" d="M44.941,34.229c0.003-0.191,0.086-0.354,0.194-0.504
	c0.162-0.226,0.368-0.407,0.577-0.587c3.098-2.665,6.154-5.375,9.193-8.106c0.914-0.822,1.827-1.646,2.742-2.467
	c0.206-0.184,0.418-0.36,0.676-0.467c0.318-0.133,0.61-0.097,0.867,0.147c0.123,0.117,0.229,0.247,0.309,0.396
	c0.329,0.613,0.725,1.186,1.143,1.74c0.156,0.206,0.145,0.385,0.037,0.588c-0.064,0.124-0.15,0.229-0.253,0.322
	c-2.363,2.145-4.727,4.291-7.092,6.436c-0.435,0.395-0.877,0.782-1.314,1.176c-0.108,0.097-0.215,0.197-0.313,0.304
	c-0.354,0.389-0.345,0.655,0.021,1.028c0.163,0.165,0.348,0.299,0.532,0.436c2.773,2.056,5.464,4.221,8.216,6.304
	c0.151,0.115,0.306,0.229,0.452,0.352c0.528,0.441,0.605,0.854,0.262,1.451c-0.249,0.43-0.493,0.86-0.692,1.314
	c-0.196,0.445-0.374,0.9-0.562,1.351c-0.055,0.126-0.105,0.255-0.176,0.371c-0.122,0.199-0.279,0.242-0.488,0.134
	c-0.121-0.063-0.232-0.146-0.341-0.229c-3.116-2.427-6.232-4.852-9.345-7.283c-1.33-1.039-2.641-2.104-3.938-3.184
	c-0.188-0.157-0.371-0.32-0.518-0.518C45.021,34.584,44.939,34.422,44.941,34.229z"/>
<path fill-rule="evenodd" clip-rule="evenodd" fill="#E11925" d="M23.398,44.663c-0.458-1.655-1.421-3.043-2.396-4.42
	c-0.19-0.27-0.49-0.354-0.817-0.291c-0.255,0.048-0.508,0.104-0.762,0.156c-0.94,0.195-1.893,0.336-2.808,0.643
	c-1.624,0.543-2.621,1.849-2.623,3.425c0.002,0.454,0.087,0.893,0.229,1.323c0.936,2.838,4.296,4.131,6.337,3.73
	c1.105-0.217,2.031-0.707,2.599-1.724C23.663,46.599,23.668,45.637,23.398,44.663z M19.376,45.95
	c-0.364-0.13-0.727-0.305-0.999-0.588c-0.251-0.261-0.557-0.471-0.642-0.849c-0.102-0.448,0.13-0.921,0.593-1.045
	c0.036-0.009,0.071-0.019,0.106-0.028c0.18-0.048,0.363-0.032,0.527,0.031c0.015-0.01,0.026-0.021,0.042-0.03
	c0.374-0.219,0.963-0.113,1.162,0.305c0.054,0.113,0.116,0.229,0.133,0.356c0.014,0.095,0.027,0.189,0.039,0.284
	c0,0.005,0.001,0.008,0.001,0.012c0.019,0.123,0.036,0.246,0.05,0.371c0.008,0.046,0.019,0.091,0.032,0.136
	C20.58,45.494,20.003,46.173,19.376,45.95z"/>
</svg>
