<?xml version="1.0" encoding="utf-8"?>
<!-- Generator: Adobe Illustrator 16.0.3, SVG Export Plug-In . SVG Version: 6.00 Build 0)  -->
<!DOCTYPE svg PUBLIC "-//W3C//DTD SVG 1.1//EN" "http://www.w3.org/Graphics/SVG/1.1/DTD/svg11.dtd">
<svg version="1.1" id="Слой_1" xmlns="http://www.w3.org/2000/svg" xmlns:xlink="http://www.w3.org/1999/xlink" x="0px" y="0px"
	 width="48px" height="48px" viewBox="0 0 48 48" enable-background="new 0 0 48 48" xml:space="preserve">
<g>
	<path fill="#ECECEC" d="M20.781,18.989l-4.354,1.551c-0.586-1.84-1.824-2.76-3.723-2.76c-2.022,0-3.033,0.698-3.033,2.095
		c0,0.557,0.189,1.027,0.568,1.414c0.376,0.386,1.232,0.721,2.564,1.006c2.227,0.48,3.859,0.962,4.893,1.45
		c1.032,0.488,1.906,1.275,2.612,2.361c0.71,1.084,1.064,2.297,1.064,3.635c0,2.1-0.761,3.918-2.278,5.451
		c-1.521,1.533-3.772,2.299-6.757,2.299c-3.268,0.061-5.003-1.107-5.719-1.627s-1.335-0.732-2.486-2.605l3.146-3.104
		c1.041,1.855,2.979,2.992,5.409,2.992c1.172,0,2.044-0.24,2.621-0.725c0.573-0.482,0.861-1.061,0.861-1.729
		c0-0.682-0.263-1.211-0.784-1.584c-0.521-0.375-1.529-0.729-3.021-1.057c-2.782-0.613-4.766-1.453-5.947-2.514
		c-1.183-1.062-1.774-2.615-1.774-4.659c0-2.068,0.707-3.812,2.118-5.23c1.414-1.421,3.33-2.13,5.75-2.13
		C16.798,13.52,19.555,15.343,20.781,18.989z"/>
</g>
<g>
	<path fill="#FFFFFF" d="M43.863,41.342c0,0-4.004,2.701-9.543,2.701c-5.665,0-10.258-1.93-13.781-5.799
		c-3.432-3.742-5.147-8.463-5.147-14.162c0-5.521,1.679-10.205,5.039-14.056c3.503-4.031,7.971-6.34,13.372-6.046
		c6.258,0.34,9.539,2.715,9.539,2.715l-0.059,10.125l-4.169-1.701c0,0-2.924-1.089-4.467-1.089c-2.669,0-4.804,0.998-6.4,2.996
		c-1.471,1.853-2.206,4.139-2.206,6.862c0,2.763,0.735,5.076,2.206,6.947c1.597,2.031,3.731,3.051,6.4,3.051
		c1.58,0,6.025-0.889,9.216-2.785C43.871,31.916,43.863,41.342,43.863,41.342z"/>
</g>
</svg>
