<?xml version="1.0" encoding="utf-8"?>
<!-- Generator: Adobe Illustrator 16.0.3, SVG Export Plug-In . SVG Version: 6.00 Build 0)  -->
<!DOCTYPE svg PUBLIC "-//W3C//DTD SVG 1.1//EN" "http://www.w3.org/Graphics/SVG/1.1/DTD/svg11.dtd">
<svg version="1.1" id="Слой_1" xmlns="http://www.w3.org/2000/svg" xmlns:xlink="http://www.w3.org/1999/xlink" x="0px" y="0px"
	 width="33px" height="33px" viewBox="0 0 33 33" enable-background="new 0 0 33 33" xml:space="preserve">
<path fill="#6C7B8A" d="M16.67,23.462c-3.933,0-7.132-3.199-7.132-7.132s3.199-7.132,7.132-7.132s7.132,3.199,7.132,7.132
	S20.603,23.462,16.67,23.462z M16.67,11.198c-2.83,0-5.132,2.302-5.132,5.132c0,2.83,2.302,5.132,5.132,5.132
	c2.83,0,5.132-2.302,5.132-5.132C21.802,13.5,19.5,11.198,16.67,11.198z"/>
<path fill="#6C7B8A" d="M16.668,32.678c-3.674,0-7.343-1.246-10.366-3.732C0.408,24.104-1.349,15.942,2.028,9.101
	c3.377-6.84,10.92-10.406,18.354-8.673C27.813,2.162,33,8.701,33,16.33v1.531c0,3.089-2.512,5.602-5.598,5.602
	c-3.088,0-5.602-2.512-5.602-5.6V16.33c0-0.552,0.447-1,1-1s1,0.448,1,1v1.533c0,1.984,1.615,3.6,3.602,3.6
	c1.982,0,3.598-1.615,3.598-3.602V16.33c0-6.694-4.555-12.433-11.073-13.955c-6.52-1.52-13.142,1.609-16.106,7.612
	C0.858,15.99,2.4,23.15,7.572,27.4c5.172,4.248,12.499,4.375,17.811,0.306c0.439-0.335,1.066-0.252,1.402,0.187
	c0.336,0.438,0.253,1.065-0.186,1.401C23.648,31.553,20.156,32.678,16.668,32.678z"/>
</svg>
