<?xml version="1.0" encoding="utf-8"?>
<!-- Generator: Adobe Illustrator 16.0.3, SVG Export Plug-In . SVG Version: 6.00 Build 0)  -->
<!DOCTYPE svg PUBLIC "-//W3C//DTD SVG 1.1//EN" "http://www.w3.org/Graphics/SVG/1.1/DTD/svg11.dtd">
<svg version="1.1" id="Слой_1" xmlns="http://www.w3.org/2000/svg" xmlns:xlink="http://www.w3.org/1999/xlink" x="0px" y="0px"
	 width="31.371px" height="48px" viewBox="0 0 31.371 48" enable-background="new 0 0 31.371 48" xml:space="preserve">
<path fill="#020202" d="M15.686,47.998c0,0-0.667-10.832-6.334-16.582C3.686,25.667-0.314,25,0.02,13.833
	C0.352,2.667,8.686,0,15.686,0c0,5.667,0,7.917,0,7.917s-5,0.333-5,4.75s5,4.917,5,5S15.686,47.998,15.686,47.998z M15.686,47.998
	c0,0,0.666-10.834,6.333-16.584c5.667-5.749,9.666-6.415,9.333-17.581C31.019,2.667,22.686,0,15.686,0c0,5.667,0,7.917,0,7.917
	s5,0.333,5,4.75s-5,4.917-5,5S15.686,47.998,15.686,47.998z"/>
</svg>
