<?xml version="1.0" encoding="utf-8"?>
<!-- Generator: Adobe Illustrator 16.0.3, SVG Export Plug-In . SVG Version: 6.00 Build 0)  -->
<!DOCTYPE svg PUBLIC "-//W3C//DTD SVG 1.1//EN" "http://www.w3.org/Graphics/SVG/1.1/DTD/svg11.dtd">
<svg version="1.1" id="Слой_1" xmlns="http://www.w3.org/2000/svg" xmlns:xlink="http://www.w3.org/1999/xlink" x="0px" y="0px"
	 width="276.68px" height="269.958px" viewBox="0 0 276.68 269.958" enable-background="new 0 0 276.68 269.958"
	 xml:space="preserve">
<path fill="#E22125" d="M170.099,76.479c8.957,0.455,8.975,0.453,9.635,8.583c2.668,32.84,5.289,65.687,8.051,98.519
	c0.221,2.623-0.067,3.834-3.001,3.871c-2.581,0.03-5.167,0.553-7.729,0.98c-6.9,1.154-6.854,1.178-7.415-6.139
	c-2.59-33.717-5.15-67.438-7.896-101.145c-0.266-3.257,0.646-4.52,3.722-4.562C167.372,76.562,169.279,76.499,170.099,76.479"/>
<path fill="#E22125" d="M248.944,105.573c-0.229,2.173-1.803,2.868-2.897,3.873c-9.967,9.142-19.895,18.331-30.023,27.29
	c-2.905,2.569-3.271,3.86,0.178,6.408c11.011,8.138,21.669,16.747,32.604,24.989c2.556,1.927,3.222,3.451,1.473,6.346
	c-1.867,3.091-3.305,6.48-4.591,9.868c-0.896,2.354-1.664,2.475-3.579,0.957c-16.712-13.236-33.841-25.94-50.232-39.591
	c-3.492-2.907-3.602-4.594,0.054-7.738c15.246-13.115,30.233-26.535,45.17-40.006c3.211-2.896,5.277-3.051,7.419,0.935
	C245.813,101.324,247.554,103.508,248.944,105.573"/>
<path fill="#E22125" d="M86.371,104.344c-4.373,7.061-8.555,13.58-12.504,20.237c-10.165,17.136-20.063,34.434-29.112,52.187
	c-1.896,3.721-3.7,4.009-7.225,2.587c-9.653-3.896-9.763-3.79-4.764-13.056c15.215-28.202,29.749-56.813,49.267-82.449
	c4.407-5.787,4.352-5.834,8.635,0.03c20.558,28.143,40.665,56.604,60.601,85.191c2.14,3.067,2.614,4.86-1.215,6.586
	c-3.542,1.594-6.423,6.59-9.771,5.635c-2.895-0.826-4.727-5.608-6.889-8.74c-13.49-19.547-26.939-39.125-40.406-58.688
	C90.938,110.889,88.866,107.933,86.371,104.344"/>
<path fill="#E22125" d="M99.284,165.12c-1.027-1.513-2.229-1.927-3.974-1.524c-4.043,0.931-8.192,1.479-12.156,2.659
	c-9.466,2.815-13.342,11.681-8.8,20.543c3.991,7.789,11.287,10.759,18.085,11.929c11.602,0.565,18.15-7.317,15.547-17.168
	C106.369,175.437,102.793,170.284,99.284,165.12 M93.972,185.769c-4.536-0.586-7.893-3.472-7.178-7.052
	c0.71-3.555,4.489-0.822,6.491-2.657c3.136,2.112,2.078,5.558,2.883,8.245C96.741,186.213,95.291,185.938,93.972,185.769"/>
</svg>
