<?xml version="1.0" encoding="utf-8"?>
<!-- Generator: Adobe Illustrator 16.0.3, SVG Export Plug-In . SVG Version: 6.00 Build 0)  -->
<!DOCTYPE svg PUBLIC "-//W3C//DTD SVG 1.1//EN" "http://www.w3.org/Graphics/SVG/1.1/DTD/svg11.dtd">
<svg version="1.1" id="Слой_1" xmlns="http://www.w3.org/2000/svg" xmlns:xlink="http://www.w3.org/1999/xlink" x="0px" y="0px"
	 width="276.679px" height="269.958px" viewBox="0 0 276.679 269.958" enable-background="new 0 0 276.679 269.958"
	 xml:space="preserve">
<path fill="#E22125" d="M170.099,76.479c8.957,0.455,8.975,0.453,9.635,8.583c2.668,32.84,5.289,65.686,8.051,98.519
	c0.221,2.623-0.067,3.834-3.001,3.87c-2.581,0.031-5.167,0.553-7.73,0.981c-6.9,1.155-6.854,1.178-7.415-6.138
	c-2.589-33.718-5.15-67.438-7.895-101.145c-0.266-3.257,0.646-4.52,3.722-4.562C167.372,76.562,169.279,76.499,170.099,76.479"/>
<path fill="#E22125" d="M248.944,105.573c-0.229,2.173-1.803,2.868-2.897,3.873c-9.967,9.142-19.895,18.331-30.024,27.29
	c-2.905,2.569-3.27,3.86,0.178,6.408c11.011,8.137,21.669,16.747,32.603,24.989c2.556,1.927,3.222,3.451,1.473,6.346
	c-1.867,3.091-3.305,6.48-4.591,9.868c-0.895,2.354-1.664,2.475-3.579,0.957c-16.712-13.236-33.841-25.94-50.232-39.59
	c-3.492-2.908-3.602-4.595,0.053-7.739c15.247-13.115,30.234-26.535,45.17-40.006c3.211-2.896,5.278-3.051,7.419,0.935
	C245.813,101.324,247.554,103.508,248.944,105.573"/>
<path fill="#E22125" d="M86.371,104.344c-4.373,7.061-8.555,13.58-12.504,20.237c-10.165,17.137-20.063,34.434-29.112,52.187
	c-1.896,3.721-3.701,4.009-7.225,2.587c-9.653-3.895-9.763-3.79-4.764-13.055c15.215-28.203,29.749-56.814,49.267-82.45
	c4.407-5.787,4.352-5.834,8.635,0.03c20.557,28.143,40.665,56.604,60.6,85.191c2.14,3.067,2.615,4.86-1.215,6.585
	c-3.542,1.595-6.422,6.591-9.771,5.636c-2.895-0.826-4.727-5.609-6.889-8.74c-13.49-19.548-26.939-39.125-40.406-58.689
	C90.938,110.889,88.866,107.933,86.371,104.344"/>
<path fill="#E22125" d="M99.284,165.119c-1.027-1.512-2.229-1.926-3.974-1.524c-4.043,0.931-8.192,1.48-12.156,2.66
	c-9.466,2.815-13.342,11.68-8.8,20.543c3.991,7.789,11.287,10.758,18.085,11.928c11.602,0.566,18.151-7.318,15.547-17.168
	C106.369,175.437,102.793,170.284,99.284,165.119 M93.972,185.769c-4.536-0.586-7.892-3.472-7.177-7.052
	c0.71-3.554,4.489-0.822,6.491-2.657c3.136,2.112,2.078,5.557,2.883,8.245C96.741,186.213,95.291,185.938,93.972,185.769"/>
<path fill="#020203" d="M127.027,269.925c-41.253-5.877-77.997-24.672-102.19-63.938c-9.779-15.873-18.8-32.228-22.784-50.734
	c-5.655-26.266,0.906-50.707,13.124-73.53C40.636,34.164,81.857,8.441,134.286,0.676c18.265-2.705,36.355,3.021,52.431,11.683
	c18.408,9.921,36.287,21.096,53.221,33.349c7.085,5.125,11.361,14.28,16.538,21.859c13.655,19.995,21.908,41.994,19.905,66.394
	c-2.677,32.622-14.137,62.309-34.015,88.455c-13.188,17.349-28.373,32.965-50.029,38.832
	C172.187,266.707,151.486,270.348,127.027,269.925 M138.944,263.408c36.342,1.657,62.721-7.779,85.482-27.499
	c24.845-21.524,39.623-48.479,44.959-81.022c3.371-20.561,3.484-41.112-6.204-59.38c-26.239-49.474-66.533-80.258-123.745-84.087
	C96.599,8.553,61.798,26.153,35.195,59.235c-35.321,43.922-32.056,105.861-4.015,142.29
	C59.654,238.515,98.477,258.793,138.944,263.408 M36.034,215.81c10.745,23.84,70.398,55.957,98.281,52.331
	c-16.482-6.438-35.278-11.893-52.174-20.907C65.179,238.183,50.109,225.586,36.034,215.81 M199.388,24.232
	c-26.241-24.661-85.28-25.611-106.777-8.769C130.304,2.488,165.39,7.135,199.388,24.232 M11.814,96.755
	c-13.924,24.834-10.884,71.801,5.685,87.806C6.628,155.897,3.199,126.783,11.814,96.755 M248.459,64.4
	c0.432-0.449,0.864-0.897,1.297-1.346c-6.461-10.857-14.532-20.083-27.036-24.843C231.299,46.941,239.879,55.671,248.459,64.4"/>
</svg>
