<?xml version="1.0" encoding="utf-8"?>
<!-- Generator: Adobe Illustrator 16.0.3, SVG Export Plug-In . SVG Version: 6.00 Build 0)  -->
<!DOCTYPE svg PUBLIC "-//W3C//DTD SVG 1.1//EN" "http://www.w3.org/Graphics/SVG/1.1/DTD/svg11.dtd">
<svg version="1.1" id="Слой_1" xmlns="http://www.w3.org/2000/svg" xmlns:xlink="http://www.w3.org/1999/xlink" x="0px" y="0px"
	 width="33px" height="33px" viewBox="0 0 33 33" enable-background="new 0 0 33 33" xml:space="preserve">
<path fill="none" stroke="#6C7B8A" stroke-width="2" stroke-linecap="round" stroke-linejoin="round" stroke-miterlimit="10" d="
	M31.477,24.259v4.571c0.003,0.858-0.355,1.679-0.987,2.259c-0.633,0.58-1.48,0.866-2.335,0.789c-4.689-0.51-9.193-2.111-13.15-4.678
	c-3.682-2.34-6.803-5.461-9.143-9.143C3.286,14.082,1.683,9.556,1.183,4.846C1.106,3.994,1.391,3.148,1.967,2.517
	S3.36,1.524,4.215,1.524h4.571c1.53-0.015,2.833,1.106,3.048,2.621c0.193,1.463,0.551,2.899,1.066,4.282
	c0.419,1.114,0.151,2.369-0.686,3.215l-1.936,1.935c2.169,3.814,5.328,6.974,9.143,9.143l1.936-1.935
	c0.846-0.837,2.102-1.104,3.215-0.687c1.383,0.517,2.819,0.874,4.282,1.067C30.388,21.382,31.515,22.712,31.477,24.259z"/>
</svg>
