<?xml version="1.0" encoding="utf-8"?>
<!-- Generator: Adobe Illustrator 16.0.3, SVG Export Plug-In . SVG Version: 6.00 Build 0)  -->
<!DOCTYPE svg PUBLIC "-//W3C//DTD SVG 1.1//EN" "http://www.w3.org/Graphics/SVG/1.1/DTD/svg11.dtd">
<svg version="1.1" id="Слой_1" xmlns="http://www.w3.org/2000/svg" xmlns:xlink="http://www.w3.org/1999/xlink" x="0px" y="0px"
	 width="33px" height="33px" viewBox="0 0 33 33" enable-background="new 0 0 33 33" xml:space="preserve">
<path fill="#6C7B8A" d="M28.429,32.891c-0.121,0-0.242-0.006-0.364-0.017c-4.841-0.526-9.539-2.197-13.604-4.835
	c-3.773-2.399-7.041-5.667-9.442-9.446c-2.644-4.079-4.315-8.799-4.83-13.641C0.085,3.808,0.464,2.68,1.228,1.843
	c0.765-0.838,1.854-1.319,2.987-1.319h4.571c2.034,0,3.756,1.496,4.038,3.48c0.184,1.394,0.524,2.761,1.013,4.073
	c0.553,1.471,0.196,3.147-0.912,4.268l-1.392,1.391c1.929,3.149,4.58,5.8,7.729,7.729l1.389-1.388
	c1.113-1.102,2.812-1.466,4.271-0.917c1.309,0.489,2.675,0.83,4.063,1.013c2.047,0.289,3.544,2.056,3.492,4.11v4.546
	c0.005,1.133-0.473,2.227-1.31,2.995C30.417,32.513,29.445,32.891,28.429,32.891z M8.817,2.524H4.215
	c-0.572,0-1.123,0.243-1.509,0.667C2.319,3.614,2.127,4.185,2.179,4.756c0.479,4.516,2.043,8.933,4.522,12.757
	c2.25,3.54,5.305,6.596,8.84,8.844c3.811,2.473,8.208,4.036,12.721,4.527c0.043,0.004,0.104,0.007,0.166,0.007
	c0.515,0,1.007-0.191,1.386-0.539c0.423-0.389,0.665-0.941,0.662-1.517v-4.576c0.026-1.064-0.731-1.958-1.763-2.104
	c-1.528-0.201-3.043-0.578-4.492-1.121c-0.74-0.275-1.601-0.093-2.161,0.462l-1.933,1.932c-0.318,0.318-0.813,0.383-1.201,0.162
	c-3.969-2.258-7.261-5.549-9.518-9.518c-0.223-0.392-0.156-0.884,0.162-1.202l1.936-1.935c0.557-0.563,0.737-1.41,0.457-2.156
	c-0.542-1.456-0.919-2.97-1.121-4.503C10.702,3.281,9.83,2.524,8.817,2.524z"/>
</svg>
