<?xml version="1.0" encoding="utf-8"?>
<!-- Generator: Adobe Illustrator 16.0.3, SVG Export Plug-In . SVG Version: 6.00 Build 0)  -->
<!DOCTYPE svg PUBLIC "-//W3C//DTD SVG 1.1//EN" "http://www.w3.org/Graphics/SVG/1.1/DTD/svg11.dtd">
<svg version="1.1" id="Слой_1" xmlns="http://www.w3.org/2000/svg" xmlns:xlink="http://www.w3.org/1999/xlink" x="0px" y="0px"
	 width="166.182px" height="188.243px" viewBox="0 0 166.182 188.243" enable-background="new 0 0 166.182 188.243"
	 xml:space="preserve">
<linearGradient id="Polygon-2_1_" gradientUnits="userSpaceOnUse" x1="-410.3628" y1="-725.2109" x2="-410.3628" y2="-726.8238" gradientTransform="matrix(101.325 0 0 114.6608 41663.1016 83338.2266)">
	<stop  offset="0" style="stop-color:#3DCCC6"/>
	<stop  offset="1" style="stop-color:#31A3B7"/>
</linearGradient>
<path id="Polygon-2" fill="url(#Polygon-2_1_)" d="M77.43,1.353c3.117-1.804,8.204-1.804,11.319,0l71.69,41.505
	c3.117,1.804,5.742,6.232,5.742,9.843v82.844c0,3.606-2.461,8.038-5.742,9.842l-71.69,41.502c-3.115,1.807-8.202,1.807-11.319,0
	L5.742,145.387C2.625,143.583,0,139.151,0,135.545V52.701c0-3.611,2.46-8.039,5.742-9.843L77.43,1.353z"/>
<path fill="#FCFCFC" d="M64.43,68.354l2.323,2.256c0,0,17.637-17.567,37.527,0c2.392-2.256,2.392-2.256,2.392-2.256
	s-8.613-9.228-21.121-8.817C73.042,59.946,66.275,66.645,64.43,68.354z"/>
<path fill="#FFFFFF" d="M52.058,118.185c0,0-8.761-7.271-10.116-28.846c2.188-33.767,27.204-42.789,43.609-43.336
	c16.404-0.547,43.336,12.851,43.199,42.79c-0.136,29.938-24.334,44.02-43.199,44.02c-18.866,0-30.247-12.185-30.247-12.185
	l-21.352,21.351l-2.333-2.384L52.058,118.185z M125.025,89.425c0-21.8-17.673-39.475-39.475-39.475
	c-21.8,0-39.474,17.674-39.474,39.475c0,21.8,17.674,39.474,39.474,39.474C107.353,128.898,125.025,111.225,125.025,89.425z"/>
</svg>
