<?xml version="1.0" encoding="utf-8"?>
<!-- Generator: Adobe Illustrator 16.0.3, SVG Export Plug-In . SVG Version: 6.00 Build 0)  -->
<!DOCTYPE svg PUBLIC "-//W3C//DTD SVG 1.1//EN" "http://www.w3.org/Graphics/SVG/1.1/DTD/svg11.dtd">
<svg version="1.1" id="Слой_1" xmlns="http://www.w3.org/2000/svg" xmlns:xlink="http://www.w3.org/1999/xlink" x="0px" y="0px"
	 width="36px" height="36px" viewBox="0 0 36 36" enable-background="new 0 0 36 36" xml:space="preserve">
<g>
	<g>
		<path d="M18.419,5.303c-6.752,0-12.246,5.495-12.246,12.246c0,6.754,5.494,12.248,12.246,12.248
			c6.753,0,12.247-5.494,12.247-12.248C30.666,10.797,25.172,5.303,18.419,5.303z M18.419,27.19c-5.315,0-9.64-4.325-9.64-9.642
			c0-5.316,4.325-9.64,9.64-9.64c5.315,0,9.642,4.324,9.642,9.64C28.061,22.865,23.734,27.19,18.419,27.19z"/>
		<path d="M24.803,17.171h-5.504v-6.617c0-0.557-0.452-1.009-1.009-1.009c-0.557,0-1.008,0.452-1.008,1.009v7.625
			c0,0.557,0.451,1.01,1.008,1.01h6.513c0.557,0,1.008-0.453,1.008-1.01S25.359,17.171,24.803,17.171z"/>
	</g>
</g>
</svg>
