<?xml version="1.0" encoding="utf-8"?>
<!-- Generator: Adobe Illustrator 16.0.3, SVG Export Plug-In . SVG Version: 6.00 Build 0)  -->
<!DOCTYPE svg PUBLIC "-//W3C//DTD SVG 1.1//EN" "http://www.w3.org/Graphics/SVG/1.1/DTD/svg11.dtd">
<svg version="1.1" id="Слой_1" xmlns="http://www.w3.org/2000/svg" xmlns:xlink="http://www.w3.org/1999/xlink" x="0px" y="0px"
	 width="36px" height="36px" viewBox="0 0 36 36" enable-background="new 0 0 36 36" xml:space="preserve">
<path d="M17.261,22.75c-0.169,0-0.331-0.069-0.45-0.189l-4.654-4.713c-0.249-0.251-0.088-0.892,0.162-1.142
	c0.249-0.253,0.811-0.44,1.059-0.188l3.919,3.879l6.293-6.402c0.249-0.252,0.786-0.287,1.151,0.098
	c0.464,0.469,0.459,0.884,0.211,1.137l-7.242,7.331C17.593,22.681,17.43,22.75,17.261,22.75z"/>
<g>
	<path d="M19.084,30.712c-0.443,0.221-0.515,0.388-1.194,0.388c-0.529,0-0.65-0.137-1.094-0.388
		c-1.626-0.717-2.447-2.682-4.625-2.665c-2.766,0.023-3.98-1.255-4.164-4.064c-0.081-1.24-0.528-2.155-1.293-3.079
		c-1.536-1.854-1.551-4.021,0.004-5.86c0.843-0.997,1.246-2.012,1.296-3.316c0.07-1.847,0.963-3.671,2.794-3.68
		c2.584-0.013,4.187-1.48,5.986-2.826c0.443-0.24,0.422-0.321,1.158-0.321c0.666,0,0.687,0.043,1.13,0.321
		c2.064,1.169,3.762,2.976,6.497,2.897c1.217-0.036,2.3,1.285,2.364,2.75c0.098,2.23,1.165,3.92,2.58,5.474
		c0.271,0.587,0.511,0.838,0.511,1.621c0,0.839-0.21,1.072-0.511,1.625c-1.38,1.617-2.625,3.249-2.612,5.593
		c0.009,1.345-1.075,2.592-2.188,2.594C23,27.783,21.173,29.463,19.084,30.712z M10.335,22.843
		c-0.245,2.092,0.701,3.171,2.849,3.056c1.323-0.072,2.313,0.358,3.19,1.396c1.026,1.214,2.295,1.245,3.342,0.026
		c0.941-1.094,2.026-1.485,3.421-1.436c1.763,0.065,2.725-0.87,2.654-2.687c-0.05-1.31,0.227-2.399,1.26-3.297
		c1.472-1.283,1.385-2.656-0.053-3.916c-0.951-0.835-1.266-1.85-1.2-3.085c0.098-1.908-0.842-2.937-2.735-2.849
		c-1.407,0.065-2.471-0.374-3.398-1.467c-0.965-1.138-2.217-1.177-3.162-0.042c-0.997,1.196-2.142,1.568-3.609,1.508
		c-1.825-0.074-2.723,0.971-2.52,2.751c0.158,1.375-0.168,2.37-1.258,3.222c-1.665,1.3-1.593,2.695,0.042,3.982
		C10.069,20.723,10.652,21.537,10.335,22.843z"/>
</g>
</svg>
