<?xml version="1.0" encoding="utf-8"?>
<!-- Generator: Adobe Illustrator 16.0.3, SVG Export Plug-In . SVG Version: 6.00 Build 0)  -->
<!DOCTYPE svg PUBLIC "-//W3C//DTD SVG 1.1//EN" "http://www.w3.org/Graphics/SVG/1.1/DTD/svg11.dtd">
<svg version="1.1" id="Слой_1" xmlns="http://www.w3.org/2000/svg" xmlns:xlink="http://www.w3.org/1999/xlink" x="0px" y="0px"
	 width="33px" height="33px" viewBox="0 0 33 33" enable-background="new 0 0 33 33" xml:space="preserve">
<path d="M8.632,19.345c0.958,1.299,2.059,2.447,3.481,3.258c1.611,0.922,3.345,1.199,5.174,1.115
	c0.855-0.041,1.111-0.264,1.15-1.115c0.027-0.584,0.094-1.166,0.381-1.689c0.283-0.514,0.711-0.611,1.205-0.291
	c0.246,0.16,0.453,0.363,0.648,0.578c0.482,0.525,0.949,1.07,1.447,1.578c0.627,0.639,1.371,1.016,2.303,0.939h3.615
	c0.582-0.039,0.885-0.752,0.551-1.402c-0.236-0.455-0.545-0.859-0.871-1.252c-0.738-0.889-1.609-1.645-2.432-2.447
	c-0.742-0.723-0.789-1.145-0.193-1.98c0.652-0.913,1.352-1.79,2.01-2.697c0.613-0.849,1.242-1.695,1.563-2.71
	c0.205-0.647,0.023-0.933-0.639-1.048c-0.113-0.019-0.232-0.019-0.348-0.019l-3.934-0.005c-0.486-0.008-0.752,0.204-0.924,0.634
	c-0.23,0.58-0.469,1.16-0.746,1.719c-0.623,1.271-1.322,2.498-2.301,3.536c-0.217,0.229-0.457,0.519-0.816,0.4
	c-0.449-0.165-0.584-0.908-0.576-1.159l-0.002-4.54c-0.088-0.647-0.232-0.938-0.877-1.063h-4.086c-0.544,0-0.818,0.212-1.11,0.552
	c-0.167,0.198-0.219,0.325,0.127,0.391c0.677,0.129,1.062,0.568,1.162,1.247c0.162,1.087,0.151,2.179,0.057,3.269
	c-0.027,0.317-0.082,0.635-0.208,0.933c-0.197,0.469-0.517,0.563-0.936,0.275c-0.378-0.261-0.645-0.628-0.907-0.996
	c-0.98-1.385-1.761-2.878-2.399-4.446c-0.183-0.453-0.501-0.728-0.981-0.735c-1.179-0.02-2.36-0.021-3.541,0.001
	c-0.709,0.013-0.921,0.358-0.63,1.003C5.333,14.035,6.764,16.813,8.632,19.345z"/>
<path d="M0,0v33h33V0H0z M30.959,30.959H2.041V2.041h28.918V30.959z"/>
</svg>
