<?xml version="1.0" encoding="utf-8"?>
<!-- Generator: Adobe Illustrator 16.0.3, SVG Export Plug-In . SVG Version: 6.00 Build 0)  -->
<!DOCTYPE svg PUBLIC "-//W3C//DTD SVG 1.1//EN" "http://www.w3.org/Graphics/SVG/1.1/DTD/svg11.dtd">
<svg version="1.1" id="Слой_1" xmlns="http://www.w3.org/2000/svg" xmlns:xlink="http://www.w3.org/1999/xlink" x="0px" y="0px"
	 width="80px" height="80px" viewBox="0 0 80 80" enable-background="new 0 0 80 80" xml:space="preserve">
<path fill="#4C4C4C" d="M0.194,40.004c0-0.63,0.511-1.142,1.142-1.142h38.882l-6.835-6.834c-0.445-0.446-0.445-1.161,0-1.607
	c0.446-0.446,1.161-0.446,1.606,0l8.776,8.775c0.445,0.446,0.445,1.161,0,1.607l-8.776,8.774c-0.222,0.223-0.51,0.335-0.807,0.335
	c-0.298,0-0.586-0.112-0.808-0.335c-0.446-0.444-0.446-1.16,0-1.605l6.833-6.835H1.318C0.705,41.138,0.194,40.636,0.194,40.004"/>
<rect x="35.9" y="30.087" fill="none" width="43.906" height="19.826"/>
<path fill="#4C4C4C" d="M22.956,61.143C17.309,55.496,14.198,47.987,14.198,40c0-7.986,3.11-15.495,8.758-21.143
	c5.647-5.648,13.157-8.758,21.144-8.758c7.987,0,15.496,3.11,21.144,8.758c5.647,5.647,8.759,13.157,8.759,21.143
	c0,7.988-3.111,15.497-8.759,21.143c-5.647,5.649-13.156,8.759-21.144,8.759C36.113,69.901,28.604,66.792,22.956,61.143z M16.148,40
	c0,15.414,12.539,27.951,27.951,27.951S72.051,55.413,72.051,40c0-15.412-12.539-27.95-27.951-27.95S16.148,24.588,16.148,40z"/>
<circle fill="#E12125" cx="71.726" cy="39.327" r="8.079"/>
</svg>
