<?xml version="1.0" encoding="utf-8"?><svg xmlns="http://www.w3.org/2000/svg" xmlns:xlink="http://www.w3.org/1999/xlink"><symbol viewBox="0 0 97.16 97.16" id="clock-circular-outline" xmlns="http://www.w3.org/2000/svg"><path d="M48.58 0C21.793 0 0 21.793 0 48.58s21.793 48.58 48.58 48.58 48.58-21.793 48.58-48.58S75.367 0 48.58 0zm0 86.823c-21.087 0-38.244-17.155-38.244-38.243S27.493 10.337 48.58 10.337 86.824 27.492 86.824 48.58 69.667 86.823 48.58 86.823z"/><path d="M73.898 47.08H52.066V20.83a4 4 0 0 0-8 0v30.25a4 4 0 0 0 4 4h25.832a4 4 0 0 0 0-8z"/></symbol><symbol viewBox="0 0 64 64" id="logo" xmlns="http://www.w3.org/2000/svg"><path fill-rule="evenodd" clip-rule="evenodd" d="M32.195 44.705c-.29.006-.511-.139-.711-.323a2.833 2.833 0 0 1-.532-.687c-.878-1.552-1.949-2.976-2.954-4.442-2.976-4.339-5.963-8.669-8.947-13.002-.407-.591-.826-1.175-1.229-1.769-.106-.158-.15-.174-.262.001-2.218 3.5-4.339 7.06-6.388 10.661a217.41 217.41 0 0 0-4.545 8.389 3.038 3.038 0 0 1-.198.335c-.311.449-.664.608-1.186.457a9.419 9.419 0 0 1-2.206-.934c-.419-.249-.516-.546-.374-1.016.161-.529.442-1.004.703-1.487 2.061-3.818 4.072-7.665 6.235-11.428 2.201-3.83 4.556-7.558 7.261-11.056.149-.193.298-.389.482-.552.26-.23.448-.227.702.01.202.188.365.412.527.633 4.603 6.295 9.122 12.65 13.596 19.036.911 1.302 1.819 2.604 2.729 3.906.141.201.276.404.363.635.131.354.057.621-.238.851-.049.038-.097.08-.151.104-.63.27-1.122.729-1.632 1.168-.3.258-.615.508-1.045.51zM39.44 16.92a8.881 8.881 0 0 1 2.008.102c.47.08.741.35.834.818.138.699.158 1.41.219 2.116.14 1.628.269 3.257.4 4.886l.335 4.178.395 4.863c.115 1.407.227 2.814.344 4.223.13 1.567.263 3.134.392 4.701.076.905.154 1.811.219 2.716.039.54-.168.767-.712.778-.883.019-1.74.213-2.607.344-.241.036-.482.076-.729.073-.383-.007-.557-.141-.643-.518-.096-.41-.109-.832-.143-1.25-.136-1.728-.27-3.456-.401-5.184-.113-1.477-.222-2.953-.335-4.43-.129-1.69-.263-3.38-.395-5.069-.113-1.454-.225-2.908-.34-4.361-.113-1.454-.231-2.907-.348-4.361-.096-1.225-.207-2.45-.278-3.676-.038-.658.228-.913.893-.947.296-.014.595-.002.892-.002zm5.501 17.309c.003-.191.086-.354.194-.504.162-.226.368-.407.577-.587a565.653 565.653 0 0 0 9.193-8.106c.914-.822 1.827-1.646 2.742-2.467.206-.184.418-.36.676-.467.318-.133.61-.097.867.147.123.117.229.247.309.396a13.55 13.55 0 0 0 1.143 1.74c.156.206.145.385.037.588-.064.124-.15.229-.253.322l-7.092 6.436c-.435.395-.877.782-1.314 1.176a4.49 4.49 0 0 0-.313.304c-.354.389-.345.655.021 1.028.163.165.348.299.532.436 2.773 2.056 5.464 4.221 8.216 6.304.151.115.306.229.452.352.528.441.605.854.262 1.451-.249.43-.493.86-.692 1.314-.196.445-.374.9-.562 1.351-.055.126-.105.255-.176.371-.122.199-.279.242-.488.134a2.419 2.419 0 0 1-.341-.229c-3.116-2.427-6.232-4.852-9.345-7.283a162.435 162.435 0 0 1-3.938-3.184 3.096 3.096 0 0 1-.518-.518c-.109-.15-.191-.312-.189-.505z"/><path fill-rule="evenodd" clip-rule="evenodd" d="M23.398 44.663c-.458-1.655-1.421-3.043-2.396-4.42-.19-.27-.49-.354-.817-.291-.255.048-.508.104-.762.156-.94.195-1.893.336-2.808.643-1.624.543-2.621 1.849-2.623 3.425.002.454.087.893.229 1.323.936 2.838 4.296 4.131 6.337 3.73 1.105-.217 2.031-.707 2.599-1.724.506-.906.511-1.868.241-2.842zm-4.022 1.287c-.364-.13-.727-.305-.999-.588-.251-.261-.557-.471-.642-.849-.102-.448.13-.921.593-1.045l.106-.028a.852.852 0 0 1 .527.031c.015-.01.026-.021.042-.03.374-.219.963-.113 1.162.305.054.113.116.229.133.356.014.095.027.189.039.284l.001.012c.019.123.036.246.05.371.008.046.019.091.032.136.16.589-.417 1.268-1.044 1.045z"/></symbol><symbol viewBox="0 0 342.51 298.324" id="q2" xmlns="http://www.w3.org/2000/svg"><path d="M157.519 7.894L2.187 274.42c-6.177 10.599 1.468 23.904 13.736 23.904h310.664c12.268 0 19.914-13.306 13.736-23.904L184.991 7.894c-6.134-10.524-21.339-10.524-27.472 0"/></symbol><symbol viewBox="0 0 166.182 188.243" id="search123" xmlns="http://www.w3.org/2000/svg"><path d="M77.43 1.353c3.117-1.804 8.204-1.804 11.319 0l71.69 41.505c3.117 1.804 5.742 6.232 5.742 9.843v82.844c0 3.606-2.461 8.038-5.742 9.842l-71.69 41.502c-3.115 1.807-8.202 1.807-11.319 0L5.742 145.387C2.625 143.583 0 139.151 0 135.545V52.701c0-3.611 2.46-8.039 5.742-9.843L77.43 1.353z"/><path d="M64.43 68.354l2.323 2.256s17.637-17.567 37.527 0l2.392-2.256s-8.613-9.228-21.121-8.817c-12.509.409-19.276 7.108-21.121 8.817z"/><path d="M52.058 118.185s-8.761-7.271-10.116-28.846C44.13 55.572 69.146 46.55 85.551 46.003c16.404-.547 43.336 12.851 43.199 42.79-.136 29.938-24.334 44.02-43.199 44.02-18.866 0-30.247-12.185-30.247-12.185l-21.352 21.351-2.333-2.384 20.439-21.41zm72.967-28.76c0-21.8-17.673-39.475-39.475-39.475-21.8 0-39.474 17.674-39.474 39.475 0 21.8 17.674 39.474 39.474 39.474 21.803-.001 39.475-17.674 39.475-39.474z"/></symbol><symbol viewBox="0 0 36 36" id="time" xmlns="http://www.w3.org/2000/svg"><path d="M18.419 5.303c-6.752 0-12.246 5.495-12.246 12.246 0 6.754 5.494 12.248 12.246 12.248 6.753 0 12.247-5.494 12.247-12.248 0-6.752-5.494-12.246-12.247-12.246zm0 21.887c-5.315 0-9.64-4.325-9.64-9.642 0-5.316 4.325-9.64 9.64-9.64s9.642 4.324 9.642 9.64c0 5.317-4.327 9.642-9.642 9.642z"/><path d="M24.803 17.171h-5.504v-6.617a1.01 1.01 0 0 0-2.017 0v7.625c0 .557.451 1.01 1.008 1.01h6.513a1.01 1.01 0 0 0 0-2.018z"/></symbol><symbol viewBox="0 0 36 36" id="verif" xmlns="http://www.w3.org/2000/svg"><path d="M17.261 22.75a.635.635 0 0 1-.45-.189l-4.654-4.713c-.249-.251-.088-.892.162-1.142.249-.253.811-.44 1.059-.188l3.919 3.879 6.293-6.402c.249-.252.786-.287 1.151.098.464.469.459.884.211 1.137l-7.242 7.331a.63.63 0 0 1-.449.189z"/><path d="M19.084 30.712c-.443.221-.515.388-1.194.388-.529 0-.65-.137-1.094-.388-1.626-.717-2.447-2.682-4.625-2.665-2.766.023-3.98-1.255-4.164-4.064-.081-1.24-.528-2.155-1.293-3.079-1.536-1.854-1.551-4.021.004-5.86.843-.997 1.246-2.012 1.296-3.316.07-1.847.963-3.671 2.794-3.68 2.584-.013 4.187-1.48 5.986-2.826.443-.24.422-.321 1.158-.321.666 0 .687.043 1.13.321 2.064 1.169 3.762 2.976 6.497 2.897 1.217-.036 2.3 1.285 2.364 2.75.098 2.23 1.165 3.92 2.58 5.474.271.587.511.838.511 1.621 0 .839-.21 1.072-.511 1.625-1.38 1.617-2.625 3.249-2.612 5.593.009 1.345-1.075 2.592-2.188 2.594-2.723.007-4.55 1.687-6.639 2.936zm-8.749-7.869c-.245 2.092.701 3.171 2.849 3.056 1.323-.072 2.313.358 3.19 1.396 1.026 1.214 2.295 1.245 3.342.026.941-1.094 2.026-1.485 3.421-1.436 1.763.065 2.725-.87 2.654-2.687-.05-1.31.227-2.399 1.26-3.297 1.472-1.283 1.385-2.656-.053-3.916-.951-.835-1.266-1.85-1.2-3.085.098-1.908-.842-2.937-2.735-2.849-1.407.065-2.471-.374-3.398-1.467-.965-1.138-2.217-1.177-3.162-.042-.997 1.196-2.142 1.568-3.609 1.508-1.825-.074-2.723.971-2.52 2.751.158 1.375-.168 2.37-1.258 3.222-1.665 1.3-1.593 2.695.042 3.982.911.718 1.494 1.532 1.177 2.838z"/></symbol></svg>