<?xml version="1.0" encoding="utf-8"?><svg xmlns="http://www.w3.org/2000/svg" xmlns:xlink="http://www.w3.org/1999/xlink"><symbol viewBox="0 0 97.16 97.16" id="clock-circular-outline" xmlns="http://www.w3.org/2000/svg"><path d="M48.58 0C21.793 0 0 21.793 0 48.58s21.793 48.58 48.58 48.58 48.58-21.793 48.58-48.58S75.367 0 48.58 0zm0 86.823c-21.087 0-38.244-17.155-38.244-38.243S27.493 10.337 48.58 10.337 86.824 27.492 86.824 48.58 69.667 86.823 48.58 86.823z"/><path d="M73.898 47.08H52.066V20.83a4 4 0 0 0-8 0v30.25a4 4 0 0 0 4 4h25.832a4 4 0 0 0 0-8z"/></symbol><symbol viewBox="0 0 512 512" id="fb" xmlns="http://www.w3.org/2000/svg"><path d="M256 0C114.609 0 0 114.609 0 256c0 141.391 114.609 256 256 256 141.391 0 256-114.609 256-256C512 114.609 397.391 0 256 0zm0 472c-119.297 0-216-96.703-216-216S136.703 40 256 40s216 96.703 216 216-96.703 216-216 216z"/><path d="M316.75 216.812h-44.531v-32.5c0-9.969 10.313-12.281 15.125-12.281h28.768v-43.859L283.141 128c-44.982 0-55.25 32.703-55.25 53.672v35.141H195.25V262h32.641v122h44.328V262h37.656l6.875-45.188z"/></symbol><symbol viewBox="0 0 33 33" id="instagram" xmlns="http://www.w3.org/2000/svg"><path d="M25.5 33h-18C3.364 33 0 29.636 0 25.5v-18C0 3.364 3.364 0 7.5 0h18C29.636 0 33 3.364 33 7.5v18c0 4.136-3.364 7.5-7.5 7.5zM7.5 2A5.506 5.506 0 0 0 2 7.5v18C2 28.532 4.467 31 7.5 31h18c3.032 0 5.5-2.468 5.5-5.5v-18C31 4.467 28.532 2 25.5 2h-18z"/><path d="M16.569 23.633a7.156 7.156 0 0 1-5.093-2.109 7.19 7.19 0 0 1-1.341-8.328 7.165 7.165 0 0 1 6.431-3.964c.352 0 .707.026 1.057.078a7.162 7.162 0 0 1 6.066 6.067 7.188 7.188 0 0 1-3.887 7.488 7.244 7.244 0 0 1-3.233.768zm-.003-12.401a5.176 5.176 0 0 0-4.645 2.863 5.193 5.193 0 0 0 .968 6.015 5.17 5.17 0 0 0 3.679 1.523c.806 0 1.613-.192 2.335-.556a5.19 5.19 0 0 0 2.807-5.407 5.174 5.174 0 0 0-4.382-4.382 5.102 5.102 0 0 0-.762-.056z"/></symbol><symbol viewBox="0 0 30 37" id="location" xmlns="http://www.w3.org/2000/svg"><path d="M15 37a.994.994 0 0 1-.563-.174C13.847 36.424 0 26.85 0 15.318 0 6.872 6.729 0 15 0s15 6.872 15 15.318c0 11.532-13.848 21.106-14.437 21.508A.994.994 0 0 1 15 37zm0-35C7.832 2 2 7.975 2 15.318c0 9.231 10.435 17.545 13 19.449 2.565-1.903 13-10.218 13-19.449C28 7.975 22.168 2 15 2z"/><path d="M15 21.091c-3.125 0-5.667-2.59-5.667-5.773S11.875 9.545 15 9.545s5.667 2.59 5.667 5.773-2.542 5.773-5.667 5.773zm0-9.546c-2.022 0-3.667 1.692-3.667 3.773s1.645 3.773 3.667 3.773 3.667-1.692 3.667-3.773-1.645-3.773-3.667-3.773z"/></symbol><symbol viewBox="0 0 64 64" id="logo" xmlns="http://www.w3.org/2000/svg"><path fill-rule="evenodd" clip-rule="evenodd" d="M32.195 44.705c-.29.006-.511-.139-.711-.323a2.833 2.833 0 0 1-.532-.687c-.878-1.552-1.949-2.976-2.954-4.442-2.976-4.339-5.963-8.669-8.947-13.002-.407-.591-.826-1.175-1.229-1.769-.106-.158-.15-.174-.262.001-2.218 3.5-4.339 7.06-6.388 10.661a217.41 217.41 0 0 0-4.545 8.389 3.038 3.038 0 0 1-.198.335c-.311.449-.664.608-1.186.457a9.419 9.419 0 0 1-2.206-.934c-.419-.249-.516-.546-.374-1.016.161-.529.442-1.004.703-1.487 2.061-3.818 4.072-7.665 6.235-11.428 2.201-3.83 4.556-7.558 7.261-11.056.149-.193.298-.389.482-.552.26-.23.448-.227.702.01.202.188.365.412.527.633 4.603 6.295 9.122 12.65 13.596 19.036.911 1.302 1.819 2.604 2.729 3.906.141.201.276.404.363.635.131.354.057.621-.238.851-.049.038-.097.08-.151.104-.63.27-1.122.729-1.632 1.168-.3.258-.615.508-1.045.51zM39.44 16.92a8.881 8.881 0 0 1 2.008.102c.47.08.741.35.834.818.138.699.158 1.41.219 2.116.14 1.628.269 3.257.4 4.886l.335 4.178.395 4.863c.115 1.407.227 2.814.344 4.223.13 1.567.263 3.134.392 4.701.076.905.154 1.811.219 2.716.039.54-.168.767-.712.778-.883.019-1.74.213-2.607.344-.241.036-.482.076-.729.073-.383-.007-.557-.141-.643-.518-.096-.41-.109-.832-.143-1.25-.136-1.728-.27-3.456-.401-5.184-.113-1.477-.222-2.953-.335-4.43-.129-1.69-.263-3.38-.395-5.069-.113-1.454-.225-2.908-.34-4.361-.113-1.454-.231-2.907-.348-4.361-.096-1.225-.207-2.45-.278-3.676-.038-.658.228-.913.893-.947.296-.014.595-.002.892-.002zm5.501 17.309c.003-.191.086-.354.194-.504.162-.226.368-.407.577-.587a565.653 565.653 0 0 0 9.193-8.106c.914-.822 1.827-1.646 2.742-2.467.206-.184.418-.36.676-.467.318-.133.61-.097.867.147.123.117.229.247.309.396a13.55 13.55 0 0 0 1.143 1.74c.156.206.145.385.037.588-.064.124-.15.229-.253.322l-7.092 6.436c-.435.395-.877.782-1.314 1.176a4.49 4.49 0 0 0-.313.304c-.354.389-.345.655.021 1.028.163.165.348.299.532.436 2.773 2.056 5.464 4.221 8.216 6.304.151.115.306.229.452.352.528.441.605.854.262 1.451-.249.43-.493.86-.692 1.314-.196.445-.374.9-.562 1.351-.055.126-.105.255-.176.371-.122.199-.279.242-.488.134a2.419 2.419 0 0 1-.341-.229c-3.116-2.427-6.232-4.852-9.345-7.283a162.435 162.435 0 0 1-3.938-3.184 3.096 3.096 0 0 1-.518-.518c-.109-.15-.191-.312-.189-.505z"/><path fill-rule="evenodd" clip-rule="evenodd" d="M23.398 44.663c-.458-1.655-1.421-3.043-2.396-4.42-.19-.27-.49-.354-.817-.291-.255.048-.508.104-.762.156-.94.195-1.893.336-2.808.643-1.624.543-2.621 1.849-2.623 3.425.002.454.087.893.229 1.323.936 2.838 4.296 4.131 6.337 3.73 1.105-.217 2.031-.707 2.599-1.724.506-.906.511-1.868.241-2.842zm-4.022 1.287c-.364-.13-.727-.305-.999-.588-.251-.261-.557-.471-.642-.849-.102-.448.13-.921.593-1.045l.106-.028a.852.852 0 0 1 .527.031c.015-.01.026-.021.042-.03.374-.219.963-.113 1.162.305.054.113.116.229.133.356.014.095.027.189.039.284l.001.012c.019.123.036.246.05.371.008.046.019.091.032.136.16.589-.417 1.268-1.044 1.045z"/></symbol><symbol viewBox="0 0 33 33" id="mail" xmlns="http://www.w3.org/2000/svg"><path d="M16.67 23.462c-3.933 0-7.132-3.199-7.132-7.132s3.199-7.132 7.132-7.132 7.132 3.199 7.132 7.132-3.199 7.132-7.132 7.132zm0-12.264a5.138 5.138 0 0 0-5.132 5.132 5.138 5.138 0 0 0 5.132 5.132 5.138 5.138 0 0 0 5.132-5.132 5.138 5.138 0 0 0-5.132-5.132z"/><path d="M16.668 32.678a16.284 16.284 0 0 1-10.366-3.732A16.262 16.262 0 0 1 2.028 9.101C5.405 2.261 12.948-1.305 20.382.428A16.26 16.26 0 0 1 33 16.33v1.531a5.607 5.607 0 0 1-5.598 5.602 5.608 5.608 0 0 1-5.602-5.6V16.33a1 1 0 1 1 2 0v1.533c0 1.984 1.615 3.6 3.602 3.6A3.605 3.605 0 0 0 31 17.861V16.33A14.274 14.274 0 0 0 19.927 2.375 14.273 14.273 0 0 0 3.821 9.987 14.27 14.27 0 0 0 7.572 27.4a14.276 14.276 0 0 0 17.811.306 1 1 0 0 1 1.216 1.588 16.304 16.304 0 0 1-9.931 3.384z"/></symbol><symbol viewBox="0 0 31.371 48" id="mark" xmlns="http://www.w3.org/2000/svg"><path d="M15.686 47.998s-.667-10.832-6.334-16.582C3.686 25.667-.314 25 .02 13.833.352 2.667 8.686 0 15.686 0v7.917s-5 .333-5 4.75 5 4.917 5 5v30.331zm0 0s.666-10.834 6.333-16.584c5.667-5.749 9.666-6.415 9.333-17.581C31.019 2.667 22.686 0 15.686 0v7.917s5 .333 5 4.75-5 4.917-5 5v30.331z"/></symbol><symbol viewBox="0 0 276.68 269.958" id="pencil-footer-logo" xmlns="http://www.w3.org/2000/svg"><path d="M170.099 76.479c8.957.455 8.975.453 9.635 8.583 2.668 32.84 5.289 65.687 8.051 98.519.221 2.623-.067 3.834-3.001 3.871-2.581.03-5.167.553-7.729.98-6.9 1.154-6.854 1.178-7.415-6.139-2.59-33.717-5.15-67.438-7.896-101.145-.266-3.257.646-4.52 3.722-4.562 1.906-.024 3.813-.087 4.633-.107m78.845 29.094c-.229 2.173-1.803 2.868-2.897 3.873-9.967 9.142-19.895 18.331-30.023 27.29-2.905 2.569-3.271 3.86.178 6.408 11.011 8.138 21.669 16.747 32.604 24.989 2.556 1.927 3.222 3.451 1.473 6.346-1.867 3.091-3.305 6.48-4.591 9.868-.896 2.354-1.664 2.475-3.579.957-16.712-13.236-33.841-25.94-50.232-39.591-3.492-2.907-3.602-4.594.054-7.738 15.246-13.115 30.233-26.535 45.17-40.006 3.211-2.896 5.277-3.051 7.419.935 1.293 2.42 3.034 4.604 4.424 6.669m-162.573-1.229c-4.373 7.061-8.555 13.58-12.504 20.237-10.165 17.136-20.063 34.434-29.112 52.187-1.896 3.721-3.7 4.009-7.225 2.587-9.653-3.896-9.763-3.79-4.764-13.056 15.215-28.202 29.749-56.813 49.267-82.449 4.407-5.787 4.352-5.834 8.635.03 20.558 28.143 40.665 56.604 60.601 85.191 2.14 3.067 2.614 4.86-1.215 6.586-3.542 1.594-6.423 6.59-9.771 5.635-2.895-.826-4.727-5.608-6.889-8.74-13.49-19.547-26.939-39.125-40.406-58.688-2.05-2.975-4.122-5.931-6.617-9.52"/><path d="M99.284 165.12c-1.027-1.513-2.229-1.927-3.974-1.524-4.043.931-8.192 1.479-12.156 2.659-9.466 2.815-13.342 11.681-8.8 20.543 3.991 7.789 11.287 10.759 18.085 11.929 11.602.565 18.15-7.317 15.547-17.168-1.617-6.122-5.193-11.275-8.702-16.439m-5.312 20.649c-4.536-.586-7.893-3.472-7.178-7.052.71-3.555 4.489-.822 6.491-2.657 3.136 2.112 2.078 5.558 2.883 8.245.573 1.908-.877 1.633-2.196 1.464"/></symbol><symbol viewBox="0 0 33 33" id="phone" xmlns="http://www.w3.org/2000/svg"><path d="M28.429 32.891c-.121 0-.242-.006-.364-.017a31.304 31.304 0 0 1-13.604-4.835 30.92 30.92 0 0 1-9.442-9.446A31.288 31.288 0 0 1 .189 4.952a4.063 4.063 0 0 1 1.039-3.109A4.055 4.055 0 0 1 4.215.524h4.571c2.034 0 3.756 1.496 4.038 3.48a18.654 18.654 0 0 0 1.013 4.073 4.059 4.059 0 0 1-.912 4.268l-1.392 1.391a23.406 23.406 0 0 0 7.729 7.729l1.389-1.388a4.087 4.087 0 0 1 4.271-.917c1.309.489 2.675.83 4.063 1.013a4.05 4.05 0 0 1 3.492 4.11v4.546a4.054 4.054 0 0 1-1.31 2.995 4.036 4.036 0 0 1-2.738 1.067zM8.817 2.524H4.215a2.046 2.046 0 0 0-2.036 2.232 29.25 29.25 0 0 0 4.522 12.757 28.945 28.945 0 0 0 8.84 8.844 29.297 29.297 0 0 0 12.721 4.527 2.043 2.043 0 0 0 2.214-2.049v-4.576a2.056 2.056 0 0 0-1.763-2.104 20.424 20.424 0 0 1-4.492-1.121 2.076 2.076 0 0 0-2.161.462l-1.933 1.932a1.003 1.003 0 0 1-1.201.162 25.406 25.406 0 0 1-9.518-9.518 1 1 0 0 1 .162-1.202l1.936-1.935a2.05 2.05 0 0 0 .457-2.156 20.66 20.66 0 0 1-1.121-4.503 2.054 2.054 0 0 0-2.025-1.752z"/></symbol><symbol viewBox="0 0 342.51 298.324" id="q2" xmlns="http://www.w3.org/2000/svg"><path d="M157.519 7.894L2.187 274.42c-6.177 10.599 1.468 23.904 13.736 23.904h310.664c12.268 0 19.914-13.306 13.736-23.904L184.991 7.894c-6.134-10.524-21.339-10.524-27.472 0"/></symbol><symbol viewBox="0 0 166.182 188.243" id="search123" xmlns="http://www.w3.org/2000/svg"><path d="M77.43 1.353c3.117-1.804 8.204-1.804 11.319 0l71.69 41.505c3.117 1.804 5.742 6.232 5.742 9.843v82.844c0 3.606-2.461 8.038-5.742 9.842l-71.69 41.502c-3.115 1.807-8.202 1.807-11.319 0L5.742 145.387C2.625 143.583 0 139.151 0 135.545V52.701c0-3.611 2.46-8.039 5.742-9.843L77.43 1.353z"/><path d="M64.43 68.354l2.323 2.256s17.637-17.567 37.527 0l2.392-2.256s-8.613-9.228-21.121-8.817c-12.509.409-19.276 7.108-21.121 8.817z"/><path d="M52.058 118.185s-8.761-7.271-10.116-28.846C44.13 55.572 69.146 46.55 85.551 46.003c16.404-.547 43.336 12.851 43.199 42.79-.136 29.938-24.334 44.02-43.199 44.02-18.866 0-30.247-12.185-30.247-12.185l-21.352 21.351-2.333-2.384 20.439-21.41zm72.967-28.76c0-21.8-17.673-39.475-39.475-39.475-21.8 0-39.474 17.674-39.474 39.475 0 21.8 17.674 39.474 39.474 39.474 21.803-.001 39.475-17.674 39.475-39.474z"/></symbol><symbol viewBox="0 0 36 36" id="time" xmlns="http://www.w3.org/2000/svg"><path d="M18.419 5.303c-6.752 0-12.246 5.495-12.246 12.246 0 6.754 5.494 12.248 12.246 12.248 6.753 0 12.247-5.494 12.247-12.248 0-6.752-5.494-12.246-12.247-12.246zm0 21.887c-5.315 0-9.64-4.325-9.64-9.642 0-5.316 4.325-9.64 9.64-9.64s9.642 4.324 9.642 9.64c0 5.317-4.327 9.642-9.642 9.642z"/><path d="M24.803 17.171h-5.504v-6.617a1.01 1.01 0 0 0-2.017 0v7.625c0 .557.451 1.01 1.008 1.01h6.513a1.01 1.01 0 0 0 0-2.018z"/></symbol><symbol viewBox="0 0 36 36" id="verif" xmlns="http://www.w3.org/2000/svg"><path d="M17.261 22.75a.635.635 0 0 1-.45-.189l-4.654-4.713c-.249-.251-.088-.892.162-1.142.249-.253.811-.44 1.059-.188l3.919 3.879 6.293-6.402c.249-.252.786-.287 1.151.098.464.469.459.884.211 1.137l-7.242 7.331a.63.63 0 0 1-.449.189z"/><path d="M19.084 30.712c-.443.221-.515.388-1.194.388-.529 0-.65-.137-1.094-.388-1.626-.717-2.447-2.682-4.625-2.665-2.766.023-3.98-1.255-4.164-4.064-.081-1.24-.528-2.155-1.293-3.079-1.536-1.854-1.551-4.021.004-5.86.843-.997 1.246-2.012 1.296-3.316.07-1.847.963-3.671 2.794-3.68 2.584-.013 4.187-1.48 5.986-2.826.443-.24.422-.321 1.158-.321.666 0 .687.043 1.13.321 2.064 1.169 3.762 2.976 6.497 2.897 1.217-.036 2.3 1.285 2.364 2.75.098 2.23 1.165 3.92 2.58 5.474.271.587.511.838.511 1.621 0 .839-.21 1.072-.511 1.625-1.38 1.617-2.625 3.249-2.612 5.593.009 1.345-1.075 2.592-2.188 2.594-2.723.007-4.55 1.687-6.639 2.936zm-8.749-7.869c-.245 2.092.701 3.171 2.849 3.056 1.323-.072 2.313.358 3.19 1.396 1.026 1.214 2.295 1.245 3.342.026.941-1.094 2.026-1.485 3.421-1.436 1.763.065 2.725-.87 2.654-2.687-.05-1.31.227-2.399 1.26-3.297 1.472-1.283 1.385-2.656-.053-3.916-.951-.835-1.266-1.85-1.2-3.085.098-1.908-.842-2.937-2.735-2.849-1.407.065-2.471-.374-3.398-1.467-.965-1.138-2.217-1.177-3.162-.042-.997 1.196-2.142 1.568-3.609 1.508-1.825-.074-2.723.971-2.52 2.751.158 1.375-.168 2.37-1.258 3.222-1.665 1.3-1.593 2.695.042 3.982.911.718 1.494 1.532 1.177 2.838z"/></symbol><symbol viewBox="0 0 33 33" id="vk" xmlns="http://www.w3.org/2000/svg"><path d="M8.632 19.345c.958 1.299 2.059 2.447 3.481 3.258 1.611.922 3.345 1.199 5.174 1.115.855-.041 1.111-.264 1.15-1.115.027-.584.094-1.166.381-1.689.283-.514.711-.611 1.205-.291.246.16.453.363.648.578.482.525.949 1.07 1.447 1.578.627.639 1.371 1.016 2.303.939h3.615c.582-.039.885-.752.551-1.402-.236-.455-.545-.859-.871-1.252-.738-.889-1.609-1.645-2.432-2.447-.742-.723-.789-1.145-.193-1.98.652-.913 1.352-1.79 2.01-2.697.613-.849 1.242-1.695 1.563-2.71.205-.647.023-.933-.639-1.048-.113-.019-.232-.019-.348-.019l-3.934-.005c-.486-.008-.752.204-.924.634-.23.58-.469 1.16-.746 1.719-.623 1.271-1.322 2.498-2.301 3.536-.217.229-.457.519-.816.4-.449-.165-.584-.908-.576-1.159l-.002-4.54c-.088-.647-.232-.938-.877-1.063h-4.086c-.544 0-.818.212-1.11.552-.167.198-.219.325.127.391.677.129 1.062.568 1.162 1.247.162 1.087.151 2.179.057 3.269a3.042 3.042 0 0 1-.208.933c-.197.469-.517.563-.936.275-.378-.261-.645-.628-.907-.996-.98-1.385-1.761-2.878-2.399-4.446-.183-.453-.501-.728-.981-.735a99.523 99.523 0 0 0-3.541.001c-.709.013-.921.358-.63 1.003 1.284 2.856 2.715 5.634 4.583 8.166z"/><path d="M0 0v33h33V0H0zm30.959 30.959H2.041V2.041h28.918v28.918z"/></symbol></svg>