<?xml version="1.0" encoding="utf-8"?><svg xmlns="http://www.w3.org/2000/svg" xmlns:xlink="http://www.w3.org/1999/xlink"><symbol viewBox="0 0 97.16 97.16" id="clock-circular-outline" xmlns="http://www.w3.org/2000/svg"><path d="M48.58 0C21.793 0 0 21.793 0 48.58s21.793 48.58 48.58 48.58 48.58-21.793 48.58-48.58S75.367 0 48.58 0zm0 86.823c-21.087 0-38.244-17.155-38.244-38.243S27.493 10.337 48.58 10.337 86.824 27.492 86.824 48.58 69.667 86.823 48.58 86.823z"/><path d="M73.898 47.08H52.066V20.83a4 4 0 0 0-8 0v30.25a4 4 0 0 0 4 4h25.832a4 4 0 0 0 0-8z"/></symbol><symbol viewBox="0 0 33 33" id="fb" xmlns="http://www.w3.org/2000/svg"><path d="M7.5 1h18A6.5 6.5 0 0 1 32 7.5v18a6.5 6.5 0 0 1-6.5 6.5h-18A6.5 6.5 0 0 1 1 25.5v-18A6.5 6.5 0 0 1 7.5 1z"/><path d="M22.7 15.523a6.2 6.2 0 1 1-5.223-5.224 6.202 6.202 0 0 1 5.223 5.224z"/></symbol><symbol viewBox="0 0 33 33" id="instagram" xmlns="http://www.w3.org/2000/svg"><path d="M7.5 1h18A6.5 6.5 0 0 1 32 7.5v18a6.5 6.5 0 0 1-6.5 6.5h-18A6.5 6.5 0 0 1 1 25.5v-18A6.5 6.5 0 0 1 7.5 1z"/><path d="M22.7 15.523a6.2 6.2 0 1 1-5.223-5.224 6.202 6.202 0 0 1 5.223 5.224z"/></symbol><symbol viewBox="0 0 30 37" id="location" xmlns="http://www.w3.org/2000/svg"><path d="M29 15.318C29 26.454 15 36 15 36S1 26.454 1 15.318C1 7.411 7.268 1 15 1s14 6.411 14 14.318z"/><ellipse cx="15" cy="15.318" rx="4.667" ry="4.773"/></symbol><symbol viewBox="0 0 64 64" id="logo" xmlns="http://www.w3.org/2000/svg"><path fill-rule="evenodd" clip-rule="evenodd" d="M32.195 44.705c-.29.006-.511-.139-.711-.323a2.833 2.833 0 0 1-.532-.687c-.878-1.552-1.949-2.976-2.954-4.442-2.976-4.339-5.963-8.669-8.947-13.002-.407-.591-.826-1.175-1.229-1.769-.106-.158-.15-.174-.262.001-2.218 3.5-4.339 7.06-6.388 10.661a217.41 217.41 0 0 0-4.545 8.389 3.038 3.038 0 0 1-.198.335c-.311.449-.664.608-1.186.457a9.419 9.419 0 0 1-2.206-.934c-.419-.249-.516-.546-.374-1.016.161-.529.442-1.004.703-1.487 2.061-3.818 4.072-7.665 6.235-11.428 2.201-3.83 4.556-7.558 7.261-11.056.149-.193.298-.389.482-.552.26-.23.448-.227.702.01.202.188.365.412.527.633 4.603 6.295 9.122 12.65 13.596 19.036.911 1.302 1.819 2.604 2.729 3.906.141.201.276.404.363.635.131.354.057.621-.238.851-.049.038-.097.08-.151.104-.63.27-1.122.729-1.632 1.168-.3.258-.615.508-1.045.51zM39.44 16.92a8.881 8.881 0 0 1 2.008.102c.47.08.741.35.834.818.138.699.158 1.41.219 2.116.14 1.628.269 3.257.4 4.886l.335 4.178.395 4.863c.115 1.407.227 2.814.344 4.223.13 1.567.263 3.134.392 4.701.076.905.154 1.811.219 2.716.039.54-.168.767-.712.778-.883.019-1.74.213-2.607.344-.241.036-.482.076-.729.073-.383-.007-.557-.141-.643-.518-.096-.41-.109-.832-.143-1.25-.136-1.728-.27-3.456-.401-5.184-.113-1.477-.222-2.953-.335-4.43-.129-1.69-.263-3.38-.395-5.069-.113-1.454-.225-2.908-.34-4.361-.113-1.454-.231-2.907-.348-4.361-.096-1.225-.207-2.45-.278-3.676-.038-.658.228-.913.893-.947.296-.014.595-.002.892-.002zm5.501 17.309c.003-.191.086-.354.194-.504.162-.226.368-.407.577-.587a565.653 565.653 0 0 0 9.193-8.106c.914-.822 1.827-1.646 2.742-2.467.206-.184.418-.36.676-.467.318-.133.61-.097.867.147.123.117.229.247.309.396a13.55 13.55 0 0 0 1.143 1.74c.156.206.145.385.037.588-.064.124-.15.229-.253.322l-7.092 6.436c-.435.395-.877.782-1.314 1.176a4.49 4.49 0 0 0-.313.304c-.354.389-.345.655.021 1.028.163.165.348.299.532.436 2.773 2.056 5.464 4.221 8.216 6.304.151.115.306.229.452.352.528.441.605.854.262 1.451-.249.43-.493.86-.692 1.314-.196.445-.374.9-.562 1.351-.055.126-.105.255-.176.371-.122.199-.279.242-.488.134a2.419 2.419 0 0 1-.341-.229c-3.116-2.427-6.232-4.852-9.345-7.283a162.435 162.435 0 0 1-3.938-3.184 3.096 3.096 0 0 1-.518-.518c-.109-.15-.191-.312-.189-.505z"/><path fill-rule="evenodd" clip-rule="evenodd" d="M23.398 44.663c-.458-1.655-1.421-3.043-2.396-4.42-.19-.27-.49-.354-.817-.291-.255.048-.508.104-.762.156-.94.195-1.893.336-2.808.643-1.624.543-2.621 1.849-2.623 3.425.002.454.087.893.229 1.323.936 2.838 4.296 4.131 6.337 3.73 1.105-.217 2.031-.707 2.599-1.724.506-.906.511-1.868.241-2.842zm-4.022 1.287c-.364-.13-.727-.305-.999-.588-.251-.261-.557-.471-.642-.849-.102-.448.13-.921.593-1.045l.106-.028a.852.852 0 0 1 .527.031c.015-.01.026-.021.042-.03.374-.219.963-.113 1.162.305.054.113.116.229.133.356.014.095.027.189.039.284l.001.012c.019.123.036.246.05.371.008.046.019.091.032.136.16.589-.417 1.268-1.044 1.045z"/></symbol><symbol viewBox="0 0 33 33" id="mail" xmlns="http://www.w3.org/2000/svg"><circle cx="16.67" cy="16.33" r="6.132"/><path d="M22.802 16.33v1.533A4.6 4.6 0 0 0 32 17.862V16.33A15.33 15.33 0 0 0 2.925 9.544 15.33 15.33 0 0 0 25.991 28.5"/></symbol><symbol viewBox="0 0 276.679 269.958" id="pencil-footer-logo" xmlns="http://www.w3.org/2000/svg"><path d="M170.099 76.479c8.957.455 8.975.453 9.635 8.583 2.668 32.84 5.289 65.686 8.051 98.519.221 2.623-.067 3.834-3.001 3.87-2.581.031-5.167.553-7.73.981-6.9 1.155-6.854 1.178-7.415-6.138-2.589-33.718-5.15-67.438-7.895-101.145-.266-3.257.646-4.52 3.722-4.562 1.906-.025 3.813-.088 4.633-.108m78.845 29.094c-.229 2.173-1.803 2.868-2.897 3.873-9.967 9.142-19.895 18.331-30.024 27.29-2.905 2.569-3.27 3.86.178 6.408 11.011 8.137 21.669 16.747 32.603 24.989 2.556 1.927 3.222 3.451 1.473 6.346-1.867 3.091-3.305 6.48-4.591 9.868-.895 2.354-1.664 2.475-3.579.957-16.712-13.236-33.841-25.94-50.232-39.59-3.492-2.908-3.602-4.595.053-7.739 15.247-13.115 30.234-26.535 45.17-40.006 3.211-2.896 5.278-3.051 7.419.935 1.296 2.42 3.037 4.604 4.427 6.669m-162.573-1.229c-4.373 7.061-8.555 13.58-12.504 20.237-10.165 17.137-20.063 34.434-29.112 52.187-1.896 3.721-3.701 4.009-7.225 2.587-9.653-3.895-9.763-3.79-4.764-13.055 15.215-28.203 29.749-56.814 49.267-82.45 4.407-5.787 4.352-5.834 8.635.03 20.557 28.143 40.665 56.604 60.6 85.191 2.14 3.067 2.615 4.86-1.215 6.585-3.542 1.595-6.422 6.591-9.771 5.636-2.895-.826-4.727-5.609-6.889-8.74-13.49-19.548-26.939-39.125-40.406-58.689-2.049-2.974-4.121-5.93-6.616-9.519"/><path d="M99.284 165.119c-1.027-1.512-2.229-1.926-3.974-1.524-4.043.931-8.192 1.48-12.156 2.66-9.466 2.815-13.342 11.68-8.8 20.543 3.991 7.789 11.287 10.758 18.085 11.928 11.602.566 18.151-7.318 15.547-17.168-1.617-6.121-5.193-11.274-8.702-16.439m-5.312 20.65c-4.536-.586-7.892-3.472-7.177-7.052.71-3.554 4.489-.822 6.491-2.657 3.136 2.112 2.078 5.557 2.883 8.245.572 1.908-.878 1.633-2.197 1.464"/><path d="M127.027 269.925c-41.253-5.877-77.997-24.672-102.19-63.938-9.779-15.873-18.8-32.228-22.784-50.734-5.655-26.266.906-50.707 13.124-73.53C40.636 34.164 81.857 8.441 134.286.676c18.265-2.705 36.355 3.021 52.431 11.683 18.408 9.921 36.287 21.096 53.221 33.349 7.085 5.125 11.361 14.28 16.538 21.859 13.655 19.995 21.908 41.994 19.905 66.394-2.677 32.622-14.137 62.309-34.015 88.455-13.188 17.349-28.373 32.965-50.029 38.832-20.15 5.459-40.851 9.1-65.31 8.677m11.917-6.517c36.342 1.657 62.721-7.779 85.482-27.499 24.845-21.524 39.623-48.479 44.959-81.022 3.371-20.561 3.484-41.112-6.204-59.38-26.239-49.474-66.533-80.258-123.745-84.087C96.599 8.553 61.798 26.153 35.195 59.235-.126 103.157 3.139 165.096 31.18 201.525c28.474 36.99 67.297 57.268 107.764 61.883M36.034 215.81c10.745 23.84 70.398 55.957 98.281 52.331-16.482-6.438-35.278-11.893-52.174-20.907-16.962-9.051-32.032-21.648-46.107-31.424M199.388 24.232C173.147-.429 114.108-1.379 92.611 15.463c37.693-12.975 72.779-8.328 106.777 8.769M11.814 96.755C-2.11 121.589.93 168.556 17.499 184.561c-10.871-28.664-14.3-57.778-5.685-87.806M248.459 64.4l1.297-1.346c-6.461-10.857-14.532-20.083-27.036-24.843L248.459 64.4"/></symbol><symbol viewBox="0 0 33 33" id="phone" xmlns="http://www.w3.org/2000/svg"><path d="M31.477 24.259v4.571a3.05 3.05 0 0 1-3.322 3.048 30.15 30.15 0 0 1-13.15-4.678 29.72 29.72 0 0 1-9.143-9.143A30.143 30.143 0 0 1 1.183 4.846a3.05 3.05 0 0 1 3.032-3.322h4.571a3.048 3.048 0 0 1 3.048 2.621A19.625 19.625 0 0 0 12.9 8.427a3.046 3.046 0 0 1-.686 3.215l-1.936 1.935a24.385 24.385 0 0 0 9.143 9.143l1.936-1.935a3.05 3.05 0 0 1 3.215-.687c1.383.517 2.819.874 4.282 1.067a3.05 3.05 0 0 1 2.623 3.094z"/></symbol><symbol viewBox="0 0 342.51 298.324" id="q2" xmlns="http://www.w3.org/2000/svg"><path d="M157.519 7.894L2.187 274.42c-6.177 10.599 1.468 23.904 13.736 23.904h310.664c12.268 0 19.914-13.306 13.736-23.904L184.991 7.894c-6.134-10.524-21.339-10.524-27.472 0"/></symbol><symbol viewBox="0 0 166.182 188.243" id="search123" xmlns="http://www.w3.org/2000/svg"><path d="M77.43 1.353c3.117-1.804 8.204-1.804 11.319 0l71.69 41.505c3.117 1.804 5.742 6.232 5.742 9.843v82.844c0 3.606-2.461 8.038-5.742 9.842l-71.69 41.502c-3.115 1.807-8.202 1.807-11.319 0L5.742 145.387C2.625 143.583 0 139.151 0 135.545V52.701c0-3.611 2.46-8.039 5.742-9.843L77.43 1.353z"/><path d="M64.43 68.354l2.323 2.256s17.637-17.567 37.527 0l2.392-2.256s-8.613-9.228-21.121-8.817c-12.509.409-19.276 7.108-21.121 8.817z"/><path d="M52.058 118.185s-8.761-7.271-10.116-28.846C44.13 55.572 69.146 46.55 85.551 46.003c16.404-.547 43.336 12.851 43.199 42.79-.136 29.938-24.334 44.02-43.199 44.02-18.866 0-30.247-12.185-30.247-12.185l-21.352 21.351-2.333-2.384 20.439-21.41zm72.967-28.76c0-21.8-17.673-39.475-39.475-39.475-21.8 0-39.474 17.674-39.474 39.475 0 21.8 17.674 39.474 39.474 39.474 21.803-.001 39.475-17.674 39.475-39.474z"/></symbol><symbol viewBox="0 0 36 36" id="time" xmlns="http://www.w3.org/2000/svg"><path d="M18.419 5.303c-6.752 0-12.246 5.495-12.246 12.246 0 6.754 5.494 12.248 12.246 12.248 6.753 0 12.247-5.494 12.247-12.248 0-6.752-5.494-12.246-12.247-12.246zm0 21.887c-5.315 0-9.64-4.325-9.64-9.642 0-5.316 4.325-9.64 9.64-9.64s9.642 4.324 9.642 9.64c0 5.317-4.327 9.642-9.642 9.642z"/><path d="M24.803 17.171h-5.504v-6.617a1.01 1.01 0 0 0-2.017 0v7.625c0 .557.451 1.01 1.008 1.01h6.513a1.01 1.01 0 0 0 0-2.018z"/></symbol><symbol viewBox="0 0 36 36" id="verif" xmlns="http://www.w3.org/2000/svg"><path d="M17.261 22.75a.635.635 0 0 1-.45-.189l-4.654-4.713c-.249-.251-.088-.892.162-1.142.249-.253.811-.44 1.059-.188l3.919 3.879 6.293-6.402c.249-.252.786-.287 1.151.098.464.469.459.884.211 1.137l-7.242 7.331a.63.63 0 0 1-.449.189z"/><path d="M19.084 30.712c-.443.221-.515.388-1.194.388-.529 0-.65-.137-1.094-.388-1.626-.717-2.447-2.682-4.625-2.665-2.766.023-3.98-1.255-4.164-4.064-.081-1.24-.528-2.155-1.293-3.079-1.536-1.854-1.551-4.021.004-5.86.843-.997 1.246-2.012 1.296-3.316.07-1.847.963-3.671 2.794-3.68 2.584-.013 4.187-1.48 5.986-2.826.443-.24.422-.321 1.158-.321.666 0 .687.043 1.13.321 2.064 1.169 3.762 2.976 6.497 2.897 1.217-.036 2.3 1.285 2.364 2.75.098 2.23 1.165 3.92 2.58 5.474.271.587.511.838.511 1.621 0 .839-.21 1.072-.511 1.625-1.38 1.617-2.625 3.249-2.612 5.593.009 1.345-1.075 2.592-2.188 2.594-2.723.007-4.55 1.687-6.639 2.936zm-8.749-7.869c-.245 2.092.701 3.171 2.849 3.056 1.323-.072 2.313.358 3.19 1.396 1.026 1.214 2.295 1.245 3.342.026.941-1.094 2.026-1.485 3.421-1.436 1.763.065 2.725-.87 2.654-2.687-.05-1.31.227-2.399 1.26-3.297 1.472-1.283 1.385-2.656-.053-3.916-.951-.835-1.266-1.85-1.2-3.085.098-1.908-.842-2.937-2.735-2.849-1.407.065-2.471-.374-3.398-1.467-.965-1.138-2.217-1.177-3.162-.042-.997 1.196-2.142 1.568-3.609 1.508-1.825-.074-2.723.971-2.52 2.751.158 1.375-.168 2.37-1.258 3.222-1.665 1.3-1.593 2.695.042 3.982.911.718 1.494 1.532 1.177 2.838z"/></symbol><symbol viewBox="0 0 33 33" id="vk" xmlns="http://www.w3.org/2000/svg"><path d="M7.5 1h18A6.5 6.5 0 0 1 32 7.5v18a6.5 6.5 0 0 1-6.5 6.5h-18A6.5 6.5 0 0 1 1 25.5v-18A6.5 6.5 0 0 1 7.5 1z"/><path d="M22.7 15.523a6.2 6.2 0 1 1-5.223-5.224 6.202 6.202 0 0 1 5.223 5.224z"/></symbol></svg>