<svg xmlns="http://www.w3.org/2000/svg" width="99.156" height="22.864"><path fill="#FFF" d="M-.625 22.864s13.11-.679 25-9.185C32.889 7.59 38-.017 49 0v22.864m50.156 0s-13.329-.679-25.219-9.185C65.424 7.59 60-.017 49 0v22.864"/><g fill="#B21919"><path d="M40.641 8.255l8.109 8.047 8.047-8.047-.719-.719-7.359 7.36-7.391-7.36z"/><path d="M48.75 16.443L40.5 8.257l.826-.863.073.071 7.32 7.289 7.359-7.359.86.86-.071.07-8.117 8.118zm-7.969-8.19l7.969 7.907 7.906-7.905-.577-.577-7.359 7.359-.071-.07-7.319-7.288-.549.574z"/></g></svg>