<?xml version="1.0" encoding="utf-8"?>
<!-- Generator: Adobe Illustrator 16.0.3, SVG Export Plug-In . SVG Version: 6.00 Build 0)  -->
<!DOCTYPE svg PUBLIC "-//W3C//DTD SVG 1.1//EN" "http://www.w3.org/Graphics/SVG/1.1/DTD/svg11.dtd">
<svg version="1.1" id="Слой_1" xmlns="http://www.w3.org/2000/svg" xmlns:xlink="http://www.w3.org/1999/xlink" x="0px" y="0px"
	 width="80px" height="80px" viewBox="0 0 80 80" enable-background="new 0 0 80 80" xml:space="preserve">
<path fill="#ADADAD" d="M79.806,40.004c0-0.63-0.511-1.142-1.142-1.142H39.782l6.835-6.834c0.445-0.446,0.445-1.161,0-1.607
	c-0.446-0.446-1.161-0.446-1.606,0l-8.776,8.775c-0.445,0.446-0.445,1.161,0,1.607l8.776,8.774c0.222,0.223,0.51,0.335,0.807,0.335
	c0.298,0,0.586-0.112,0.808-0.335c0.446-0.444,0.446-1.16,0-1.605l-6.833-6.835h38.89C79.295,41.138,79.806,40.636,79.806,40.004"/>
<rect x="35.9" y="30.087" fill="none" width="43.906" height="19.826"/>
<path fill="#ADADAD" d="M35.9,69.901c-7.987,0-15.496-3.109-21.143-8.759C9.109,55.496,5.999,47.987,5.999,40
	c0-7.986,3.11-15.495,8.758-21.143c5.647-5.648,13.156-8.758,21.143-8.758s15.497,3.11,21.144,8.758
	c5.647,5.647,8.758,13.157,8.758,21.143c0,7.988-3.11,15.497-8.758,21.143C51.396,66.792,43.887,69.901,35.9,69.901z M35.9,12.049
	C20.488,12.049,7.949,24.588,7.949,40c0,15.414,12.539,27.951,27.951,27.951c15.413,0,27.952-12.537,27.952-27.951
	C63.852,24.588,51.313,12.049,35.9,12.049z"/>
<circle fill="#E0999C" cx="8.274" cy="39.327" r="8.079"/>
</svg>
